<?xml version="1.0" encoding="UTF-8" standalone="no"?>
<!-- Created with Inkscape (http://www.inkscape.org/) -->

<svg
   version="1.1"
   id="svg1"
   width="30.012533"
   height="48.428509"
   viewBox="0 0 30.012533 48.428509"
   xmlns="http://www.w3.org/2000/svg"
>
  <defs
     id="defs1" />
  <g
     id="g1"
     transform="translate(-4.9874663,-6.196043)">
    <path
       id="path1"
       style="fill:#000000"
       d="m 20.132812,6.1992188 c -3.156739,-0.043375 -6.288755,0.3571709 -8.90625,1.2265624 -2.778114,0.922742 -5.3156723,2.36531 -5.6386714,3.2070308 -1.038084,2.705206 -0.6387909,16.218062 0.5,16.921876 0.7828406,0.48382 0.7828406,0.974972 0,1.757812 C 5.4635521,29.936837 5,34.292955 5,39.544922 5,50.422883 6.061978,51.793819 16.5,54.384766 19.395806,55.103567 30.971002,54.086159 33.146484,52.921875 34.861243,52.004165 35,50.359518 35,31.078125 V 10.228516 L 31.375,8.5078125 C 28.288866,7.0433462 24.19148,6.2549867 20.132812,6.1992188 Z m -0.199218,2.4335937 c 4.235794,0.00956 8.493688,0.3996664 10.316406,1.1640625 2.644596,1.109069 2.749101,1.431812 2.734375,8.427734 -0.01676,7.959903 -0.488649,9.315496 -3.484375,10.001953 -1.781348,0.40819 -1.699356,0.582983 0.75,1.591797 2.690527,1.108145 2.75,1.312743 2.75,9.496094 0,8.08797 -0.08701,8.404835 -2.662109,9.578125 -3.979935,1.81338 -14.271059,2.256717 -18.837891,0.8125 L 7.5,48.441406 7.2089844,39.636719 C 6.940509,31.490605 7.0712108,30.794447 8.9589844,30.300781 11.558636,29.620958 11.578661,28.385272 9,27.710938 7.2071908,27.242106 7,26.345704 7,19.068359 7,11.169438 7.074336,10.91905 9.75,9.7519531 11.484043,8.9955814 15.697799,8.6232561 19.933594,8.6328125 Z M 20,14 c -2.999991,0 -3,1.8e-5 -3,6 0,5.999982 9e-6,6 3,6 2.999991,0 3,-1.8e-5 3,-6 0,-5.999982 -9e-6,-6 -3,-6 z m 1.259766,3.824219 c 0.131042,0.0029 0.256589,0.02813 0.371093,0.105469 0.0918,0.06932 0.172887,0.146185 0.222657,0.25 0.119078,0.117276 0.221784,0.246829 0.240234,0.419921 0.0096,0.123187 0.0043,0.244323 -0.0098,0.367188 -0.0055,0.05073 -0.01234,0.101857 -0.01953,0.152344 v 0.002 c 0.02834,0.158106 0.04601,0.318442 0.02148,0.478515 -0.01391,0.116147 -0.03079,0.231544 -0.04492,0.347657 -0.01666,0.187655 0.01823,0.378616 0.01953,0.566406 0.01458,0.213507 0.04212,0.426747 0.04492,0.640625 -0.0025,0.225881 -0.0055,0.451977 -0.01367,0.677734 -0.0095,0.231775 -0.02112,0.463088 -0.05078,0.69336 -0.01836,0.143228 -0.01459,0.287293 -0.01367,0.43164 -8e-4,0.16557 -0.0019,0.330565 -0.0059,0.496094 -0.0051,0.155325 -0.01012,0.31191 -0.05078,0.462891 -0.06284,0.176667 -0.171023,0.315142 -0.351562,0.382812 -0.151947,0.0472 -0.305784,0.06244 -0.464844,0.05664 -0.176118,0.0031 -0.351332,0.0075 -0.527344,-0.002 -0.284691,-0.02277 -0.598498,-0.0667 -0.751953,-0.341797 -0.07761,-0.157376 -0.102792,-0.313879 -0.08984,-0.488281 V 23.08789 22.597655 c 0,-0.14628 -5e-6,-0.293173 0,-0.439453 6e-6,-0.1386 -2.7e-5,-0.277418 0,-0.416015 4.4e-5,-0.19129 -1.87e-4,-0.380976 0,-0.572266 2e-4,-0.203555 2.59e-4,-0.407779 0.002,-0.611328 0.0021,-0.232336 0.0047,-0.465019 0.01172,-0.697266 0.01132,-0.362608 0.02702,-0.725478 0.07031,-1.085937 0.04355,-0.289687 0.0871,-0.619221 0.347656,-0.802735 0.04383,-0.03087 0.09893,-0.04194 0.148437,-0.0625 0.139613,-0.02473 0.279268,-0.05685 0.421875,-0.05664 0.113996,-0.0046 0.226257,-0.01476 0.339844,-0.02539 0.04449,-0.003 0.08913,-0.0049 0.132813,-0.0039 z m -0.832032,5.394531 c -0.0023,9e-5 -0.0024,0.001 -0.002,0.0039 4.48e-4,0.0029 0.0021,0.0074 0.002,0.0098 1.25e-4,-0.0045 -1.23e-4,-0.0092 0,-0.01367 z m 0.404297,0.04883 c -9.8e-5,0.0032 9.7e-5,0.0065 0,0.0098 -0.0026,0.09874 -0.0051,0.196148 -0.0059,0.294922 0.0425,-0.08264 0.0476,-0.172919 0.05664,-0.263672 0.0011,-0.01309 8.81e-4,-0.02597 0.002,-0.03906 -0.0176,-6.49e-4 -0.03514,-0.0012 -0.05273,-0.002 z M 19.5,32.5 c -2.925377,0 -3.008599,0.135348 -3.308594,5.40625 -0.207174,3.640029 0.119415,5.681256 1,6.253906 0.719206,0.467705 2.208597,0.736353 3.308594,0.595703 1.749358,-0.223678 2,-1.007783 2,-6.255859 0,-5.999982 -9e-6,-6 -3,-6 z m 0.710938,2.744141 c 0.09857,4e-4 0.196361,0.0018 0.294921,0.0039 0.135232,0.0033 0.269717,0.0069 0.404297,0.02148 0.174294,0.02225 0.342346,0.06043 0.482422,0.173828 0.156596,0.139949 0.248867,0.306942 0.279297,0.515625 0.01262,0.0973 0.0193,0.195364 0.01758,0.292969 5.38e-4,0.0021 0.0014,0.0038 0.002,0.0059 0.0067,0.02668 0.01478,0.0534 0.02148,0.08008 0.01357,0.08451 0.02148,0.170347 0.0293,0.255859 0.157445,0.290104 0.236757,1.003755 0.242187,2.15625 0.0084,1.787494 -0.156337,3.25 -0.367187,3.25 -0.0068,0 -0.01278,-0.0054 -0.01953,-0.0059 -0.01123,0.06831 -0.02182,0.136436 -0.04102,0.203125 -0.02652,0.09735 -0.04038,0.194724 -0.05469,0.294922 -0.0488,0.203098 -0.137752,0.376842 -0.332031,0.476562 -0.140184,0.04576 -0.276878,0.05633 -0.423828,0.05273 -0.10242,0.0033 -0.206366,0.0086 -0.308594,0.01563 -0.17167,0.0025 -0.332561,-0.03259 -0.478516,-0.126953 -0.149997,-0.105028 -0.260909,-0.237191 -0.279296,-0.425781 -0.01546,-0.07745 -0.03644,-0.153639 -0.07227,-0.224609 -0.04405,-0.130621 -0.0713,-0.263436 -0.0625,-0.402344 v -0.392578 -0.38086 -0.349609 -0.464844 -0.5 -0.560547 c 1e-6,-0.226886 -7e-6,-0.452798 0,-0.679687 8e-6,-0.234425 -5.7e-5,-0.4687 0,-0.703125 5.4e-5,-0.169968 -4.2e-4,-0.339799 0,-0.509766 5e-4,-0.167133 0.0017,-0.334833 0.0039,-0.501953 0.0032,-0.212872 0.0068,-0.426117 0.01953,-0.638672 0.01699,-0.247964 0.02522,-0.506689 0.177735,-0.714843 0.131051,-0.125992 0.2799,-0.206687 0.464844,-0.216797 z m 0.511718,6.939453 c 0.0024,0.0039 0.0053,0.008 0.0078,0.01172 -0.0032,-0.0054 -0.004,-0.0097 0,-0.0098 -0.0025,-0.0013 -0.0053,-9.66e-4 -0.0078,-0.002 z" />
    <path
       style="fill:#ffffff;stroke-width:0.217872"
       d="M 16.460576,50.449801 C 13.928999,50.271837 12.660248,50.020906 9.90872,49.153986 8.6621455,48.761231 7.6183675,48.416031 7.5892133,48.386877 7.4888304,48.286494 7.2406248,40.043297 7.2248322,36.285357 7.2105984,32.898329 7.2233865,32.464401 7.3523042,31.95995 7.6030893,30.978635 8.0063312,30.589447 9.0513141,30.320155 9.65433,30.164757 10.580786,29.703607 10.767924,29.4657 10.9487,29.235879 10.982808,28.877284 10.847872,28.625153 10.703752,28.355863 10.074468,28.015537 9.1527602,27.708411 8.1479493,27.373594 7.8305096,27.14226 7.581461,26.563331 7.2561259,25.807069 7.1708637,24.979051 7.0751771,21.646591 6.9718472,18.047938 7.0745671,13.517802 7.282959,12.483027 7.5378909,11.217156 8.0057653,10.628046 9.2142991,10.051237 10.459575,9.456891 11.88912,9.1450346 14.602813,8.8757283 16.594416,8.678082 22.902609,8.6753514 24.95681,8.8712464 c 3.045972,0.2904731 4.577236,0.6166081 5.876004,1.2514956 1.331324,0.650803 1.698039,1.152542 1.944925,2.661049 0.115799,0.707541 0.136472,1.455493 0.13705,4.958387 0.0014,8.500424 -0.39,9.676744 -3.477993,10.452726 -1.709374,0.429548 -1.637211,0.631459 0.560701,1.568845 2.193893,0.935671 2.460519,1.234808 2.778535,3.117352 0.155146,0.918404 0.240051,9.100889 0.116371,11.214831 -0.183265,3.132364 -0.467545,3.718794 -2.214055,4.567289 -1.896854,0.921536 -4.687577,1.497139 -8.51701,1.756685 -1.103946,0.07482 -4.786936,0.09414 -5.700762,0.0299 z M 21.226533,44.6247 c 0.692958,-0.297553 0.990726,-0.829867 1.176862,-2.103847 0.139701,-0.956167 0.142847,-7.68854 0.0039,-8.436239 -0.136578,-0.735168 -0.392421,-1.192451 -0.781275,-1.396415 -0.295964,-0.155241 -0.448873,-0.167548 -2.08163,-0.167548 -1.719483,0 -1.771912,0.0049 -2.162704,0.20025 -0.745645,0.372823 -0.967613,1.14875 -1.168612,4.085107 -0.122743,1.793116 -0.12485,4.342053 -0.0043,5.166458 0.26336,1.800618 0.744844,2.370413 2.294286,2.715092 0.748329,0.166468 2.271196,0.131319 2.723404,-0.06286 z m 0.836889,-18.815683 c 0.854976,-0.424688 0.898154,-0.662746 0.943604,-5.202528 0.04734,-4.728661 -0.04016,-5.644297 -0.592154,-6.19629 -0.378072,-0.378072 -0.859039,-0.452803 -2.697805,-0.419177 -1.623983,0.0297 -1.725522,0.05105 -2.156998,0.453578 -0.320261,0.298774 -0.454822,0.84923 -0.551553,2.256276 -0.122332,1.77942 -0.0366,7.150574 0.125745,7.878348 0.296737,1.330205 0.754149,1.526167 3.371371,1.444336 1.031306,-0.03224 1.251971,-0.06264 1.55779,-0.214543 z"
       id="path12" />
  </g>
</svg>
