<?xml version="1.0" encoding="UTF-8" standalone="no"?>
<!-- Created with Inkscape (http://www.inkscape.org/) -->

<svg
   version="1.1"
   id="svg1"
   width="68.023354"
   height="135"
   viewBox="0 0 68.023354 135"
   xml:space="preserve"
   xmlns="http://www.w3.org/2000/svg"><defs
     id="defs1" /><g
     id="layer3"
     transform="translate(-2.0162704,-0.5)"><path
       style="fill:#000000"
       d="M 2.0162703,68 V 0.5 h 2.5 c 2.0733083,0 2.5,0.47940864 2.5,2.8088704 0,1.5448787 0.5625,3.569576 1.25,4.4993274 C 9.4061034,9.349669 25.834438,15.731594 57.51627,26.940376 l 12,4.245505 0.261678,37.941275 0.261677,37.941274 -31.261677,10.56001 -31.2616777,10.56 -0.3103653,3.65578 c -0.26521,3.1239 -0.6653094,3.65578 -2.75,3.65578 H 2.0162703 Z M 35.741207,83.943715 C 37.019046,80.310968 36.746441,71.5 35.356207,71.5 c -0.295634,0 -1.730562,1.269418 -3.188727,2.820929 -1.458165,1.55151 -3.548377,3.318272 -4.644915,3.926136 l -1.993705,1.105208 2.118742,2.323863 c 1.165308,1.278125 2.655442,3.363708 3.311409,4.634629 1.608037,3.115532 3.116261,2.369004 4.782196,-2.36705 z m 18.680051,-3.39669 C 57.039215,80.410991 45.604047,70.936611 41.612867,69.934888 l -2.784459,-0.698855 1.593931,3.082324 c 0.876662,1.695278 1.593931,4.15467 1.593931,5.465316 0,1.310647 0.196979,2.579972 0.43773,2.820724 0.356893,0.356893 4.364575,0.337679 11.967258,-0.05737 z M 23.237043,73.940442 c 2.517378,-0.857757 5.367285,-2.432757 6.333126,-3.5 L 31.326245,68.5 27.921258,68.464565 C 26.048515,68.445075 23.39127,67.786021 22.01627,67 c -1.375,-0.786021 -2.799027,-1.445075 -3.164505,-1.464565 -0.58119,-0.03099 -5.835495,8.604352 -5.835495,9.590518 0,0.932307 6.072463,0.22796 10.220773,-1.185511 z m 31.162663,-9.581701 c 1.467059,-2.827692 2.433718,-5.374921 2.148131,-5.660508 -0.959243,-0.959242 -11.032617,1.819574 -14.549546,4.013603 l -3.482021,2.172251 3.67931,0.639048 c 2.02362,0.351476 4.72362,1.366453 6,2.255504 1.27638,0.889052 2.594303,1.640061 2.928718,1.668909 0.334415,0.02885 1.808349,-2.261114 3.275408,-5.088807 z M 29.866303,62.25 c -0.671185,-1.2375 -1.478018,-3.799571 -1.792962,-5.693491 l -0.572627,-3.443491 -5.992222,0.277323 C 18.21277,53.542868 15.331529,53.85218 15.105734,54.077701 13.688565,55.49315 25.909512,64.5 29.247235,64.5 c 1.602443,0 1.682194,-0.289855 0.619068,-2.25 z m 12.717905,-6.341494 1.876598,-1.091493 -2.472268,-3.024542 C 40.628791,50.128973 38.977063,47.920145 38.318031,46.883964 37.277168,45.247438 36.981621,45.197008 36.067769,46.5 c -1.899536,2.708402 -3.22643,9.253997 -2.577328,12.714011 l 0.63701,3.395555 3.29008,-2.804783 c 1.809543,-1.542631 4.134548,-3.295955 5.166677,-3.896277 z"
       id="path14" /><path
       style="fill:#ffffff;stroke-width:0.459574"
       d="m 34.156481,62.135482 c -0.04296,-0.0697 -0.245989,-1.115144 -0.451179,-2.323217 -0.286668,-1.687776 -0.348064,-2.53469 -0.265091,-3.656717 0.274849,-3.716704 1.280231,-7.329659 2.621099,-9.419221 0.913515,-1.423589 1.118517,-1.346636 2.748785,1.031825 0.555219,0.810031 1.993164,2.696143 3.195432,4.191359 1.202269,1.495216 2.147472,2.780822 2.100453,2.856901 -0.04702,0.07608 -0.629524,0.46153 -1.294455,0.856558 -1.536175,0.912625 -3.542769,2.435246 -6.27005,4.75777 -1.182853,1.007305 -2.185797,1.831463 -2.228765,1.831463 -0.04297,0 -0.113271,-0.05703 -0.156229,-0.126721 z"
       id="path15" /><path
       style="fill:#ffffff;stroke-width:0.459574"
       d="m 28.216521,64.221046 c -3.141203,-0.999498 -10.437553,-6.064943 -12.399971,-8.6086 -0.755087,-0.978734 -0.859715,-1.385179 -0.394578,-1.532808 0.641625,-0.203644 2.975369,-0.420716 6.374023,-0.592877 1.951502,-0.09886 4.009233,-0.207808 4.572735,-0.242118 l 1.02455,-0.06238 0.443101,2.470196 c 0.517928,2.887341 1.076425,4.763613 2.036252,6.840793 0.666776,1.442984 0.680531,1.506874 0.372855,1.731853 -0.389118,0.284529 -1.126639,0.283055 -2.028967,-0.0041 z"
       id="path16" /><path
       style="fill:#ffffff;stroke-width:0.459574"
       d="m 13.284525,75.288813 c -0.190469,-0.120647 -0.154998,-0.316191 0.196703,-1.08441 1.121786,-2.450302 5.004215,-8.562976 5.438725,-8.562976 0.121175,0 1.121986,0.451175 2.224025,1.002612 2.881311,1.441748 3.96532,1.715765 7.303451,1.846176 l 2.765326,0.108033 -1.50062,1.43617 c -2.70636,2.590122 -6.284232,4.129036 -11.776798,5.065434 -2.081828,0.35492 -4.249751,0.443002 -4.650812,0.188961 z"
       id="path17" /><path
       style="fill:#ffffff;stroke-width:0.459574"
       d="m 32.234331,87.856987 c -0.20124,-0.140954 -0.756464,-0.902893 -1.23383,-1.693197 -1.057727,-1.75112 -2.495379,-3.705469 -3.724319,-5.062849 -1.742433,-1.92454 -1.721112,-1.622081 -0.177125,-2.512652 1.684548,-0.971646 2.860143,-1.943289 5.816118,-4.807087 2.214129,-2.145085 2.349012,-2.24613 2.643087,-1.979995 0.521724,0.472153 0.708729,1.568602 0.804155,4.714921 0.138379,4.562496 -0.302061,7.007701 -1.763046,9.787964 -0.877928,1.670704 -1.558683,2.117689 -2.36504,1.552895 z"
       id="path18" /><path
       style="fill:#ffffff;stroke-width:0.459574"
       d="m 43.563506,80.732728 c -0.48031,-0.03875 -0.963127,-0.178707 -1.072928,-0.311009 -0.109801,-0.132301 -0.262813,-1.021925 -0.340026,-1.976941 -0.22773,-2.816656 -0.590782,-4.038726 -2.083604,-7.013616 -0.523836,-1.043899 -0.95243,-1.931797 -0.95243,-1.973107 0,-0.193759 3.201887,0.812176 4.234193,1.330254 3.295012,1.653652 9.810993,6.812344 11.050762,8.748872 0.552408,0.862865 0.390958,0.9208 -2.895148,1.0389 -5.46969,0.196575 -7.05769,0.227902 -7.940819,0.156647 z"
       id="path19" /><path
       style="fill:#ffffff;stroke-width:0.459574"
       d="M 50.181477,68.880284 C 49.716834,68.620591 48.894574,68.12228 48.354233,67.772925 46.410976,66.516521 43.670298,65.602239 40.423967,65.127412 39.610842,65.00848 38.945756,64.86639 38.945999,64.811656 c 0.0011,-0.240293 4.460995,-2.776261 5.954057,-3.385546 4.265208,-1.740537 10.650121,-3.261275 11.447006,-2.726412 0.219334,0.147215 0.198504,0.328569 -0.160932,1.40116 -0.790602,2.359234 -4.555677,9.267536 -5.043855,9.254654 -0.06379,-0.0017 -0.496155,-0.215536 -0.960798,-0.475228 z"
       id="path20" /></g></svg>
