<?xml version="1.0" encoding="UTF-8" standalone="no"?>
<!-- Created with Inkscape (http://www.inkscape.org/) -->

<svg
   version="1.1"
   id="svg1"
   width="49.040707"
   height="72.568039"
   viewBox="0 0 49.040707 72.568039"
   xmlns="http://www.w3.org/2000/svg"
>
  <defs
     id="defs1" />
  <g
     id="g1"
     transform="translate(-1.9907603,-0.12092896)">
    <path
       style="fill:#000000"
       d="M 18.5,71.735418 C 16.3,71.105128 14.216166,70.179589 13.869258,69.678664 13.52235,69.17774 10.710656,68.707616 7.6210496,68.633946 L 2.0035838,68.5 2.0017919,37.904988 C 1.9997104,2.3653745 1.2159773,4.8747322 13.262342,1.8509414 c 8.989229,-2.25641057 12.55476,-2.2884995 21.819013,-0.1963659 6.199869,1.4001079 7.989812,2.3083202 11.6384,5.9052926 L 51.031468,11.810585 50.765734,40.057724 50.5,68.304862 46.729305,70.261209 C 42.155253,72.634361 24.801059,73.540643 18.5,71.735418 Z M 33.200779,66.936276 C 36.115351,66.351228 39.7375,65.396634 41.25,64.814956 L 44,63.757359 V 35.539195 7.32103 L 41.652231,6.2513149 C 40.360958,5.6629715 35.906185,4.6105885 31.752735,3.9126859 25.593523,2.8777558 22.845599,2.8859848 16.850504,3.9573123 12.807727,4.6797594 8.4875,5.7321424 7.25,6.2959412 L 5,7.32103 v 28.232496 c 0,31.91628 -0.9394477,28.683127 9,30.973921 7.044291,1.623532 12.563927,1.741058 19.200779,0.408829 z M 19,35.5 V 14 H 24.5 30 V 35.5 57 H 24.5 19 Z m 8,0 C 27,24.5 26.628571,18 26,18 c -0.628571,0 -1,6.5 -1,17.5 0,11 0.371429,17.5 1,17.5 0.628571,0 1,-6.5 1,-17.5 z"
       id="path1" />
    <path
       style="fill:#ffffff;stroke-width:0.308821"
       d="M 22.211475,67.719697 C 21.376696,67.665964 19.920582,67.514394 18.975667,67.382873 17.249926,67.14267 10.938668,65.869734 9.3884618,65.449201 7.0950902,64.827064 6.1398455,63.745678 5.6318351,61.196507 5.1250785,58.653627 5.1273657,58.773622 5.084186,32.464093 L 5.0429927,7.3648659 6.2458706,6.8248969 C 7.763456,6.1436563 8.3837455,5.9295623 10.218341,5.4537916 13.502998,4.601972 18.765129,3.609801 21.336313,3.3575057 c 3.964776,-0.3890405 8.860757,0.1281212 15.620019,1.6499405 2.628651,0.5918297 3.987191,1.0111532 5.591703,1.7259216 l 1.447598,0.6448674 V 35.538031 63.697826 l -1.901747,0.713122 c -2.218297,0.831824 -3.485611,1.207402 -6.443231,1.909506 -5.023316,1.192472 -9.465717,1.655001 -13.43918,1.399243 z M 30.030568,35.480349 V 13.908297 H 24.467249 18.90393 v 21.572052 21.572053 h 5.563319 5.563319 z"
       id="path2" />
  </g>
</svg>
