<?xml version="1.0" encoding="UTF-8" standalone="no"?>
<!-- Created with Inkscape (http://www.inkscape.org/) -->

<svg
   version="1.1"
   id="svg1"
   width="30"
   height="71"
   viewBox="0 0 30 71"
   xml:space="preserve"
   xmlns="http://www.w3.org/2000/svg"
><defs
     id="defs1" /><g
     id="layer1"
     transform="translate(-12,-1.9563319)"><path
       style="fill:#000000"
       d="m 18,71.956332 c 0,-0.55 -1.35,-1 -3,-1 h -3 v -8.5 -8.5 h 3 3 v -17.5 -17.5 h -3 -3 v -8.5 -8.5000001 h 11.5 c 10.833333,0 11.5,0.115942 11.5,2 0,1.3333333 0.666667,2 2,2 1.944444,0 2,0.6666666 2,24.0000001 0,20.666667 0.208333,24 1.5,24 1.22807,0 1.5,1.722222 1.5,9.5 v 9.5 H 30 c -7.333333,0 -12,-0.388889 -12,-1 z m 21,-9.5 v -6.5 h -3 -3 v -26 V 3.9563319 H 23.5 14 v 6.5000001 6.5 h 3 3 v 19.5 19.5 h -3 -3 v 6.5 6.5 H 26.5 39 Z"
       id="path2" /><path
       style="fill:#ffffff;stroke-width:0.308821"
       d="m 14.021834,62.445415 v -6.414847 h 3.008734 3.008733 V 36.445415 16.860262 H 17.030568 14.021834 V 10.445415 4.0305677 h 9.480349 9.48035 v 26.0000003 26 H 35.991266 39 v 6.414847 6.414847 H 26.510917 14.021834 Z"
       id="path3" /></g></svg>
