<?xml version="1.0" encoding="UTF-8" standalone="no"?>
<!-- Created with Inkscape (http://www.inkscape.org/) -->

<svg
   version="1.1"
   id="svg1"
   width="44.876675"
   height="72.999992"
   viewBox="0 0 44.876675 72.999992"
   xml:space="preserve"
   xmlns="http://www.w3.org/2000/svg"
><defs
     id="defs1" /><g
     id="layer2"
     transform="translate(-2.123258,-0.77292585)"><path
       style="fill:#000000"
       d="m 9,72.336284 c 0,-0.889881 -1.2368929,-1.5559 -3.25,-1.75 L 2.5,70.272926 2.1965943,63.803779 C 2.0297212,60.245748 2.1574167,56.281864 2.4803621,54.995147 2.8033076,53.70843 6.6523401,48.921645 11.033768,44.357848 15.415196,39.794051 19,35.320435 19,34.41648 c 0,-1.305598 -1.028125,-1.643554 -5,-1.643554 -3.777778,0 -5,-0.366667 -5,-1.5 0,-1 -1,-1.5 -3,-1.5 H 3 V 17.80811 C 3,7.2806322 3.217672,5.7267989 4.8119635,4.8735599 7.5039095,3.4328742 19.626233,0.77292585 23.5,0.77292585 c 5.479717,0 16.746981,2.95785825 20.243167,5.31419325 l 3.243167,2.1858068 0.0068,15.6267131 0.0068,15.626714 -7.75,7.607394 -7.75,7.607395 7.75,0.01589 7.75,0.01589 v 9.5 9.5 H 28 c -15.849807,0 -19,-0.238195 -19,-1.436642 z m 34,-9.563358 v -6 H 31.265632 19.531264 L 31.265632,45.007906 43,33.242887 V 20.668421 C 43,6.0851363 43.654065,6.9648133 31.149496,4.7302382 25.132629,3.6550199 22.411107,3.6492094 16.149496,4.6982125 4.6188348,6.6299358 5,6.1817509 5,17.80811 v 9.964816 h 6.5 6.5 v -6.5 -6.5 h 5.5 5.5 v 7.235559 7.23556 L 16.769669,41.503811 4.539338,53.763577 4.1603691,61.268252 3.7814003,68.772926 H 23.3907 43 Z m -17,-39.5 c 0,-2.475 -0.45,-4.5 -1,-4.5 -0.55,0 -1,2.025 -1,4.5 0,2.475 0.45,4.5 1,4.5 0.55,0 1,-2.025 1,-4.5 z"
       id="path3" /><path
       style="fill:#ffffff;stroke-width:0.308821"
       d="m 3.869192,68.037118 c 0.031435,-0.390284 0.2081489,-3.749267 0.3926972,-7.464407 l 0.3355424,-6.7548 9.6292784,-9.651314 C 19.522813,38.858375 25.014556,33.340175 26.430583,31.90393 l 2.574595,-2.611354 0.0018,-7.294759 0.0018,-7.29476 h -5.506551 -5.50655 v 6.528384 6.528384 h -6.47166 -6.4716153 l 9.711e-4,-7.521834 C 5.0543443,12.713147 5.1297059,10.715562 5.4608277,9.4377215 5.9946511,7.3776295 7.141028,6.5326959 10.388646,5.8056873 12.1015,5.4222495 18.09225,4.4239438 20.039301,4.1974905 c 1.954567,-0.2273273 5.289008,-0.226754 7.209607,0.00124 2.725253,0.3235135 9.614808,1.5779821 11.21832,2.0426616 2.568275,0.744257 3.636826,1.7932336 4.110065,4.0347779 0.316324,1.498293 0.390515,4.052357 0.393543,13.547854 l 0.003,9.291272 L 31.22525,44.941929 19.476665,56.76856 31.22525,56.79747 42.973836,56.82638 v 5.960171 5.960171 H 23.392919 3.8120372 Z"
       id="path4" /></g></svg>
