<?xml version="1.0" encoding="UTF-8" standalone="no"?>
<!-- Created with Inkscape (http://www.inkscape.org/) -->

<svg
   version="1.1"
   id="svg1"
   width="46.815754"
   height="72.573174"
   viewBox="0 0 46.815754 72.573174"
   xml:space="preserve"
   xmlns="http://www.w3.org/2000/svg"
   ><defs
     id="defs1" /><g
     id="layer3"
     transform="translate(-3,0.02677484)"><path
       style="fill:#000000"
       d="M 19.5,71.69175 C 17.3,71.06146 15.275,70.253054 15,69.895293 14.725,69.537531 12.909495,68.952713 10.965544,68.595698 3.5323661,67.23056 3,66.214952 3,53.399628 V 41.956332 h 4 4 v -6.5 -6.5 H 7 3 V 18.11132 C 3,8.5141268 3.2315387,7.0567674 5.0123423,5.4451623 7.3048949,3.3704308 19.698759,-9.7993384e-4 25.127335,-0.02656936 31.349536,-0.05589982 42.970548,3.0606695 45.932596,5.553069 47.467007,6.8441911 49.016412,7.6065863 49.375718,7.2472807 49.735024,6.887975 49.909976,20.73213 49.7645,38.01207 L 49.5,69.430142 46.625877,70.807294 C 42.880381,72.601968 24.741442,73.1934 19.5,71.69175 Z M 34.200779,66.892608 C 37.115351,66.30756 40.7375,65.352966 42.25,64.771288 L 45,63.713691 V 51.457456 C 45,38.234803 44.770907,37.610927 39.313933,35.9729 c -2.103785,-0.631497 -2.302258,-0.866354 -0.786439,-0.930615 1.115121,-0.04727 3.027621,-0.78647 4.25,-1.642657 C 44.869046,31.934648 45,31.119203 45,19.560143 45,5.2636341 45.595857,6.0270428 32.752735,3.8690179 26.593523,2.8340878 23.845599,2.8423167 17.850504,3.9136443 5.6179699,6.0996065 6,5.6739688 6,17.116847 v 9.839485 h 7 7 v -6.5 -6.5 h 5.5 5.5 v 8 8 h -9 -9 v 5.5 5.5 h 9 9 v 8 8 H 25.5 20 v -6.5 -6.5 H 13 6 v 9.893011 c 0,11.141216 -0.4952096,10.446028 9,12.634436 7.044291,1.623532 12.563927,1.741058 19.200779,0.408829 z M 28,47.956332 c 0,-2.75 -0.45,-5 -1,-5 -0.55,0 -1,2.25 -1,5 0,2.75 0.45,5 1,5 0.55,0 1,-2.25 1,-5 z m 0,-25 c 0,-2.75 -0.45,-5 -1,-5 -0.55,0 -1,2.25 -1,5 0,2.75 0.45,5 1,5 0.55,0 1,-2.25 1,-5 z"
       id="path4" /><path
       style="fill:#ffffff;stroke-width:0.308821"
       d="m 22.820961,67.651743 c -0.187337,-0.02152 -0.90262,-0.09476 -1.58952,-0.162765 C 19.400884,67.307754 17.162008,66.905667 14.021834,66.19418 9.4141782,65.150197 8.4038896,64.805258 7.4920332,63.964738 6.8808642,63.401383 6.6033744,62.907601 6.3371598,61.909688 6.1691022,61.279719 6.1419064,60.193023 6.1040758,52.59607 l -0.042828,-8.600437 h 6.9322582 6.932258 v 6.528384 6.528385 h 5.563319 5.563319 V 48.991266 40.930131 H 22.026201 13 v -5.449782 -5.449781 h 9.026201 9.026201 v -8.061136 -8.061135 h -5.563319 -5.563319 v 6.471616 6.471615 H 12.992727 6.0596908 l 0.04522,-8.316594 C 6.1549425,9.333236 6.1617464,9.2417237 6.8990497,7.8538151 7.8449716,6.0732005 9.3917136,5.4792917 16.235808,4.268742 22.250126,3.2049592 24.189254,3.0195432 27.118106,3.228197 c 2.840676,0.2023722 10.41931,1.4078816 12.861203,2.0457911 3.028464,0.7911425 4.135584,1.8572083 4.663121,4.490204 0.186868,0.9326709 0.204732,1.7995329 0.204732,9.9344979 0,9.364506 -0.03871,10.243137 -0.513214,11.648212 -0.2999,0.888052 -0.760998,1.432019 -1.774926,2.093919 -1.385908,0.904729 -3.294041,1.577787 -4.489002,1.583409 -0.494834,0.0023 -0.667466,0.200044 -0.366693,0.419975 0.1177,0.08606 0.879108,0.364647 1.692018,0.619072 3.573512,1.118441 4.53772,1.989845 5.06331,4.575967 0.369934,1.820238 0.443024,4.077442 0.443238,13.688267 l 2.09e-4,9.366812 -1.162841,0.440254 c -4.609828,1.745287 -10.162528,3.040392 -14.900833,3.475452 -1.147309,0.105343 -5.217869,0.133561 -6.017467,0.04171 z"
       id="path5" /></g></svg>
