<?xml version="1.0" encoding="UTF-8" standalone="no"?>
<!-- Created with Inkscape (http://www.inkscape.org/) -->

<svg
   version="1.1"
   id="svg1"
   width="48.014313"
   height="72"
   viewBox="0 0 48.014313 72"
   xml:space="preserve"
   xmlns="http://www.w3.org/2000/svg"
   ><defs
     id="defs1" /><g
     id="layer4"
     transform="translate(-2,-1.956332)"><path
       style="fill:#000000"
       d="m 34,72.456332 c 0,-1.047619 -1.055556,-1.5 -3.5,-1.5 H 27 v -8.5 -8.5 h -9 c -7.333333,0 -9,-0.277778 -9,-1.5 0,-1.047619 -1.0555556,-1.5 -3.5,-1.5 H 2 v -24.5 -24.5 h 9.933578 9.933577 l 0.316423,2.75 C 22.410137,6.6753383 23.138995,7.5470837 24.75,7.7758829 26.664065,8.0477235 27,7.637136 27,5.0258829 V 1.956332 h 9.5 c 9.466667,0 9.5,0.00877 9.5,2.5 0,2.2307391 0.934905,2.9839623 3.25,2.618421 1.171554,-0.1849822 0.92372,61.65618 -0.25,62.381579 -0.55,0.339919 -1,1.491476 -1,2.559017 0,1.736455 -0.737613,1.940983 -7,1.940983 -5.555556,0 -7,-0.309524 -7,-1.5 z m 9.5,-35.5 v -31.5 h -7 -7 l -0.274771,16.25 -0.274772,16.25 H 24 19.049543 l -0.274772,-16.25 L 18.5,5.456332 H 12 5.5 v 21.5 21.5 L 17.25,48.738067 29,49.019803 v 9.301598 c 0,5.115879 0.318431,9.620028 0.707624,10.009221 0.389193,0.389193 3.651693,0.576693 7.25,0.416667 L 43.5,68.456332 Z"
       id="path5" /><path
       style="fill:#ffffff;stroke-width:0.308821"
       d="M 31.350414,68.6222 C 29.922116,68.471528 29.731572,68.376934 29.589017,67.747772 29.225492,66.143353 29.014992,61.041208 29.011194,53.742367 l -0.0025,-4.729249 -1.163756,-0.06562 c -0.640065,-0.03609 -3.71834,-0.120136 -6.840611,-0.186768 -3.122271,-0.06663 -7.490612,-0.168888 -9.707424,-0.227235 -2.216812,-0.05835 -4.4265282,-0.106947 -4.9104801,-0.108 l -0.8799127,-0.0019 V 26.965066 5.5065502 h 6.4553138 6.455313 l 0.07368,3.2074236 c 0.04053,1.7640832 0.150328,8.1888642 0.244006,14.2772922 0.09368,6.088428 0.201077,11.951201 0.238666,13.028385 l 0.06834,1.958515 h 4.96781 4.96781 l 0.07375,-3.207424 c 0.04056,-1.764083 0.149735,-8.086681 0.242608,-14.050218 0.09287,-5.963537 0.200027,-11.82631 0.238118,-13.0283843 l 0.06926,-2.1855895 h 6.913359 6.913361 V 36.956332 68.406114 l -0.255459,0.003 c -0.140502,0.0017 -1.78821,0.07715 -3.661572,0.167773 -3.682687,0.17815 -6.740293,0.195126 -8.160503,0.04531 z"
       id="path6" /></g></svg>
