<?xml version="1.0" encoding="UTF-8" standalone="no"?>
<!-- Created with Inkscape (http://www.inkscape.org/) -->

<svg
   version="1.1"
   id="svg1"
   width="43.988644"
   height="72.853149"
   viewBox="0 0 43.988644 72.853149"
   xml:space="preserve"
   xmlns="http://www.w3.org/2000/svg"
   ><defs
     id="defs1" /><g
     id="layer5"
     transform="translate(-3.0770194,-1.956332)"><path
       style="fill:#000000"
       d="M 13.165319,71.565804 C 8.5500218,69.668756 4.4162099,67.53792 3.9790704,66.830614 3.5419308,66.123307 3.1601396,51.237241 3.1306454,33.750467 L 3.0770194,1.956332 H 24.441894 45.806769 l 0.625,3.125 c 0.34375,1.71875 0.625,5.54375 0.625,8.5 v 5.375 h -12.5 -12.5 v 3.420996 3.420996 l 7.25,0.451994 c 3.9875,0.248597 9.614501,1.296649 12.504447,2.329004 l 5.254447,1.87701 -0.254447,20.487301 -0.254447,20.4873 -3,1.500325 c -1.863352,0.931878 -6.599387,1.610845 -12.5,1.792025 -8.881066,0.272695 -10.046712,0.06698 -17.89145,-3.157479 z m 24.89145,-4.253753 5.5,-1.855719 0.274088,-16.107564 c 0.206181,-12.11677 -0.04158,-16.361673 -1,-17.133196 -1.950563,-1.57019 -11.187213,-3.25924 -17.82331,-3.25924 h -5.950778 v -6.5 -6.5 h 12.5 12.5 v -6 -6 H 25.033694 6.0106198 l 0.2730743,17.75 0.2730744,17.75 11.5000005,0.5 11.5,0.5 0.287525,9.25 0.287526,9.25 h -5.037526 -5.037525 v -6.5 -6.5 H 13.020557 5.9843446 l 0.286212,9.718949 0.2862119,9.718949 7.0000005,2.254185 c 8.200878,2.640901 15.993018,2.533921 24.5,-0.336364 z m -10,-19.655719 c 0,-3.073636 -1.799382,-4.7 -5.2,-4.7 -2.777102,0 -3.721891,1.312206 -1.8,2.5 0.55,0.339919 1,1.491476 1,2.559017 0,1.489981 0.697072,1.940983 3,1.940983 2.463768,0 3,-0.411111 3,-2.3 z"
       id="path6" /><path
       style="fill:#ffffff;stroke-width:0.308821"
       d="M 23.138496,69.422756 C 19.158749,69.184164 16.878957,68.661259 9.7358079,66.348648 L 6.5851528,65.328616 v -0.564393 c 0,-0.829016 -0.4316732,-15.58301 -0.505501,-17.277323 l -0.063077,-1.447599 h 6.9829792 6.982979 v 6.471616 6.471616 h 5.121834 5.121834 l -0.07077,-1.447599 c -0.03892,-0.796179 -0.177772,-4.972925 -0.308549,-9.281659 -0.130776,-4.308734 -0.245129,-7.840277 -0.254117,-7.847876 -0.009,-0.0076 -5.189378,-0.23644 -11.511976,-0.508538 L 6.5851528,39.402138 6.5855374,38.377926 C 6.5858429,37.564439 6.2484096,14.778523 6.1050546,5.9322758 l -0.030819,-1.9017854 18.9890834,3.86e-5 18.989083,3.87e-5 V 9.9912664 15.951965 H 31.50655 18.960699 v 6.514973 6.514974 l 4.796943,0.05879 c 5.026564,0.0616 6.386898,0.158475 10.076419,0.717563 3.65876,0.554425 7.301526,1.508624 8.547954,2.239079 0.310131,0.181749 0.579143,0.451482 0.696115,0.697983 0.534762,1.126927 0.746807,4.038365 0.744466,10.221706 -0.0017,4.464449 -0.295125,22.418671 -0.367582,22.491129 -0.148509,0.148508 -7.842626,2.606781 -9.166804,2.928797 -3.828007,0.930899 -7.602414,1.298464 -11.149714,1.085799 z"
       id="path7" /></g></svg>
