<?xml version="1.0" encoding="UTF-8" standalone="no"?>
<!-- Created with Inkscape (http://www.inkscape.org/) -->

<svg
   version="1.1"
   id="svg1"
   width="47"
   height="72.996872"
   viewBox="0 0 47 72.996872"
   xml:space="preserve"
   xmlns="http://www.w3.org/2000/svg"
   ><defs
     id="defs1" /><g
     id="layer6"
     transform="translate(-2.0567685,-1.0352132)"><path
       style="fill:#000000"
       d="M 14.204077,71.492935 C 10.710097,70.195381 6.5475974,67.884637 4.9540775,66.357948 L 2.0567685,63.58215 V 35.391685 c 0,-21.342889 0.30363,-28.4376862 1.25,-29.2082428 0.6875,-0.5597786 4.3349008,-1.9648787 8.1053355,-3.1224447 11.441871,-3.51278423 26.236975,-2.36199317 34.894665,2.7141729 l 2.75,1.6123766 v 31.333284 31.333285 l -4.25,1.929146 c -6.449225,2.927411 -22.073704,2.67707 -30.602692,-0.490327 z m 25.102692,-5.297644 4.75,-2.126498 V 48.551106 33.03342 l -4.25,-1.2753 c -2.3375,-0.701415 -7.75398,-1.28126 -12.036621,-1.288544 l -7.786621,-0.01324 0.286621,-8 0.286621,-8 h 4.5 4.5 l 0.297717,6.25 0.297717,6.25 h 6.952283 6.952283 v -9.377555 c 0,-6.301125 -0.410079,-9.7061846 -1.25,-10.3792802 C 40.669075,5.4863925 30.470109,2.956332 25.702082,2.956332 c -5.945991,0 -14.435847,1.8208165 -17.9105052,3.84126 L 5.026385,8.405495 5.2915768,36.427218 5.5567685,64.448941 11.556769,66.701506 c 7.848142,2.946409 20.555605,2.714599 27.75,-0.506215 z M 20.77049,58.33672 C 20.377943,57.944173 20.056769,53.422999 20.056769,48.289665 v -9.333333 h 5.036212 5.036211 l -0.286211,9.75 -0.286212,9.75 -4.036279,0.297055 c -2.219953,0.16338 -4.357453,-0.02412 -4.75,-0.416667 z m 6.286279,-7.880388 c 0,-2.475 -0.45,-4.5 -1,-4.5 -0.55,0 -1,2.025 -1,4.5 0,2.475 0.45,4.5 1,4.5 0.55,0 1,-2.025 1,-4.5 z m 0,-27 c 0,-1.925 -0.45,-3.5 -1,-3.5 -0.55,0 -1,1.575 -1,3.5 0,1.925 0.45,3.5 1,3.5 0.55,0 1,-1.575 1,-3.5 z"
       id="path7" /><path
       style="fill:#ffffff;stroke-width:0.308821"
       d="m 21.830265,68.622658 c -3.03096,-0.183205 -6.53396,-0.781739 -8.800829,-1.50374 -0.67071,-0.213621 -2.624781,-0.918271 -4.3423806,-1.565888 L 5.5641475,64.375546 5.5640509,61.537118 C 5.5639978,59.975983 5.4593756,47.918341 5.3315572,34.742358 5.2037388,21.566376 5.1141854,10.251898 5.1325495,9.5990737 L 5.1659389,8.4121213 6.30131,7.7387957 C 9.0118649,6.1313161 10.832788,5.4084608 14.356603,4.5410709 18.374027,3.5521785 21.888531,3.0828622 25.318777,3.077215 c 2.614707,-0.0043 3.698878,0.1211881 7.266376,0.8410816 4.786355,0.9658496 9.253646,2.45762 10.203198,3.4071723 0.691243,0.6912431 1.002005,2.7120771 1.151979,7.4911251 0.05781,1.84214 0.106674,5.303603 0.10859,7.69214 l 0.0035,4.342794 h -6.925764 c -5.464177,0 -6.926059,-0.02995 -6.927158,-0.141921 -7.66e-4,-0.07806 -0.127869,-2.722052 -0.282449,-5.875546 -0.154581,-3.153493 -0.281684,-5.899672 -0.28245,-6.10262 l -0.0014,-0.368996 h -4.536341 -4.536339 l -0.05579,0.368996 c -0.05831,0.385616 -0.53059,13.963348 -0.525249,15.100437 l 0.0031,0.652838 4.002183,0.0016 c 6.132282,0.0024 9.943657,0.243095 13.539772,0.855034 1.458117,0.248123 2.192834,0.441486 5.421332,1.426786 l 1.107391,0.337963 -0.02879,15.459824 -0.02879,15.459823 -2.724891,1.219551 c -1.49869,0.670753 -3.415292,1.447635 -4.259115,1.726406 -4.125545,1.362941 -9.777635,1.977609 -15.181362,1.650983 z m 5.332103,-9.933771 c 1.327728,-0.09906 2.421562,-0.188469 2.430741,-0.19869 0.0092,-0.01022 0.123232,-3.748276 0.253449,-8.306791 0.130218,-4.558515 0.268444,-8.965175 0.307168,-9.792576 l 0.07041,-1.504367 h -5.120802 -5.120801 l 0.0011,5.70524 c 0.0014,7.225874 0.205055,11.979531 0.573483,13.383917 0.07812,0.297772 0.201264,0.450865 0.443329,0.55113 0.88563,0.366841 2.757921,0.416106 6.161945,0.162137 z"
       id="path8" /></g></svg>
