<?xml version="1.0" encoding="UTF-8" standalone="no"?>
<!-- Created with Inkscape (http://www.inkscape.org/) -->

<svg
   version="1.1"
   id="svg1"
   width="46"
   height="73.941696"
   viewBox="0 0 46 73.941696"
   xml:space="preserve"
   xmlns="http://www.w3.org/2000/svg"
   ><defs
     id="defs1" /><g
     id="layer9"
     transform="translate(-3.0567685,-0.99208603)"><path
       style="fill:#000000"
       d="M 13.681534,73.487223 C 11.550154,72.727496 8.2876545,70.633973 6.4315336,68.83495 L 3.0567685,65.563998 v -9.817402 c 0,-6.012718 0.4747267,-10.57756 1.2249594,-11.778873 0.9666125,-1.547793 0.9666125,-2.219819 0,-3.186432 C 3.412468,39.912031 3.0567685,34.6847 3.0567685,22.779385 c 0,-16.3098338 0.062646,-16.8165845 2.25,-18.2005728 C 13.827457,-0.81241953 40.045952,0.0616378 46.199253,5.9420626 l 2.857516,2.7307956 V 40.65408 72.635302 l -2.547053,1.160515 c -3.670033,1.672179 -27.910489,1.444312 -32.828182,-0.308594 z m 26.019143,-6.290475 4.856092,-1.803027 V 36.490977 7.5882325 l -5.5,-2.0001418 c -7.569272,-2.7526575 -21.523722,-2.7677204 -28.5,-0.030764 L 5.5567685,7.5189434 V 22.987638 38.456332 l 4,2 c 3.0893735,1.544687 6.0000005,2 12.7851635,2 h 8.785163 l -0.285163,8 -0.285163,8 h -5 -5 l -0.5,-6 -0.5,-6 -4.93373,-0.312295 C 5.2069131,45.548016 5.0567685,45.703122 5.0567685,56.026411 v 9.031974 l 3.6567121,1.527872 C 17.605905,70.301749 30.64605,70.558658 39.700677,67.196748 Z M 20.503438,33.67795 c -0.293112,-0.763838 -0.401023,-5.176182 -0.239801,-9.805208 l 0.293132,-8.41641 h 5 5 v 9.5 9.5 l -4.7602,0.305208 c -3.35941,0.215394 -4.917026,-0.103476 -5.293131,-1.08359 z m 7.553331,-7.221618 c 0,-2.475 -0.45,-4.5 -1,-4.5 -0.55,0 -1,2.025 -1,4.5 0,2.475 0.45,4.5 1,4.5 0.55,0 1,-2.025 1,-4.5 z m 0,26.5 c 0,-1.65 -0.45,-3 -1,-3 -0.55,0 -1,1.35 -1,3 0,1.65 0.45,3 1,3 0.55,0 1,-1.35 1,-3 z"
       id="path9" /><path
       style="fill:#ffffff;stroke-width:0.308821"
       d="M 22.407187,69.419995 C 18.769931,69.22187 15.087098,68.600641 11.921397,67.651228 10.739981,67.296914 8.5139759,66.445967 6.0742358,65.416 l -0.9082969,-0.383449 0.00409,-7.254267 c 0.00356,-6.314941 0.028934,-7.388211 0.1959563,-8.288694 0.3451452,-1.86082 0.8704102,-2.643344 2.0920928,-3.116737 0.9924952,-0.384585 3.363676,-0.416782 8.151515,-0.110684 2.122175,0.135676 3.867183,0.25599 3.877794,0.267366 0.01061,0.01138 0.241805,2.702998 0.513764,5.981382 l 0.494471,5.960699 5.079699,0.02955 5.079701,0.02955 -1.16e-4,-0.710775 C 30.654773,57.00219 31.074079,44.884496 31.153461,43.41203 l 0.05289,-0.980984 -6.945968,-0.05759 C 17.178705,42.314732 15.920292,42.248623 13.79476,41.823658 12.032664,41.471356 11.163274,41.139772 8.2598253,39.712641 L 5.5633188,38.387228 V 22.985813 7.5843987 L 8.5260827,6.4279312 C 12.712325,4.7938982 14.661209,4.3036069 18.790393,3.8456821 c 2.530729,-0.2806568 9.002426,-0.283234 11.524017,-0.00459 4.262333,0.4710028 6.634175,1.0416333 11.069869,2.6632476 l 3.065503,1.1206955 V 36.495013 65.36499 l -2.724891,1.01533 c -3.305303,1.231597 -5.201077,1.800382 -7.473799,2.242348 -2.279688,0.443319 -4.123375,0.667443 -6.604804,0.802899 -2.258749,0.1233 -2.88546,0.122634 -5.239101,-0.0056 z m 6.147398,-34.774508 2.043668,-0.130203 0.02903,-9.565502 0.02903,-9.565503 h -5.050884 -5.050884 l -0.05172,0.255459 c -0.02845,0.140502 -0.07981,1.277293 -0.114148,2.526201 -0.03433,1.248908 -0.119216,4.058952 -0.188627,6.244541 -0.15213,4.790274 -0.02128,8.65596 0.31639,9.346703 0.553419,1.132099 1.891141,1.279931 8.038148,0.888304 z"
       id="path10" /></g></svg>
