<?xml version="1.0" encoding="UTF-8" standalone="no"?>
<!-- Created with Inkscape (http://www.inkscape.org/) -->

<svg
   version="1.1"
   id="svg1"
   width="68.023354"
   height="135"
   viewBox="0 0 68.023354 135"
   xml:space="preserve"
   xmlns="http://www.w3.org/2000/svg"
><defs
     id="defs1" /><g
     id="layer3"
     transform="translate(-2.0162704,-0.5)"><path
       style="fill:#000000"
       d="M 2.0162703,68 V 0.5 h 2.5 c 2.0733083,0 2.5,0.47940864 2.5,2.8088704 0,1.5448787 0.5625,3.569576 1.25,4.4993274 C 9.4061034,9.349669 25.834438,15.731594 57.51627,26.940376 l 12,4.245505 0.261678,37.941275 0.261677,37.941274 -31.261677,10.56001 -31.2616777,10.56 -0.3103653,3.65578 c -0.26521,3.1239 -0.6653094,3.65578 -2.75,3.65578 H 2.0162703 Z M 35.741207,83.943715 C 37.019046,80.310968 36.746441,71.5 35.356207,71.5 c -0.295634,0 -1.730562,1.269418 -3.188727,2.820929 -1.458165,1.55151 -3.548377,3.318272 -4.644915,3.926136 l -1.993705,1.105208 2.118742,2.323863 c 1.165308,1.278125 2.655442,3.363708 3.311409,4.634629 1.608037,3.115532 3.116261,2.369004 4.782196,-2.36705 z m 18.680051,-3.39669 C 57.039215,80.410991 45.604047,70.936611 41.612867,69.934888 l -2.784459,-0.698855 1.593931,3.082324 c 0.876662,1.695278 1.593931,4.15467 1.593931,5.465316 0,1.310647 0.196979,2.579972 0.43773,2.820724 0.356893,0.356893 4.364575,0.337679 11.967258,-0.05737 z M 23.237043,73.940442 c 2.517378,-0.857757 5.367285,-2.432757 6.333126,-3.5 L 31.326245,68.5 27.921258,68.464565 C 26.048515,68.445075 23.39127,67.786021 22.01627,67 c -1.375,-0.786021 -2.799027,-1.445075 -3.164505,-1.464565 -0.58119,-0.03099 -5.835495,8.604352 -5.835495,9.590518 0,0.932307 6.072463,0.22796 10.220773,-1.185511 z m 31.162663,-9.581701 c 1.467059,-2.827692 2.433718,-5.374921 2.148131,-5.660508 -0.959243,-0.959242 -11.032617,1.819574 -14.549546,4.013603 l -3.482021,2.172251 3.67931,0.639048 c 2.02362,0.351476 4.72362,1.366453 6,2.255504 1.27638,0.889052 2.594303,1.640061 2.928718,1.668909 0.334415,0.02885 1.808349,-2.261114 3.275408,-5.088807 z M 29.866303,62.25 c -0.671185,-1.2375 -1.478018,-3.799571 -1.792962,-5.693491 l -0.572627,-3.443491 -5.992222,0.277323 C 18.21277,53.542868 15.331529,53.85218 15.105734,54.077701 13.688565,55.49315 25.909512,64.5 29.247235,64.5 c 1.602443,0 1.682194,-0.289855 0.619068,-2.25 z m 12.717905,-6.341494 1.876598,-1.091493 -2.472268,-3.024542 C 40.628791,50.128973 38.977063,47.920145 38.318031,46.883964 37.277168,45.247438 36.981621,45.197008 36.067769,46.5 c -1.899536,2.708402 -3.22643,9.253997 -2.577328,12.714011 l 0.63701,3.395555 3.29008,-2.804783 c 1.809543,-1.542631 4.134548,-3.295955 5.166677,-3.896277 z"
       id="path14" /><path
       style="fill:#ffffff;stroke-width:0.459574"
       d="m 34.156481,62.135482 c -0.04296,-0.0697 -0.245989,-1.115144 -0.451179,-2.323217 -0.286668,-1.687776 -0.348064,-2.53469 -0.265091,-3.656717 0.274849,-3.716704 1.280231,-7.329659 2.621099,-9.419221 0.913515,-1.423589 1.118517,-1.346636 2.748785,1.031825 0.555219,0.810031 1.993164,2.696143 3.195432,4.191359 1.202269,1.495216 2.147472,2.780822 2.100453,2.856901 -0.04702,0.07608 -0.629524,0.46153 -1.294455,0.856558 -1.536175,0.912625 -3.542769,2.435246 -6.27005,4.75777 -1.182853,1.007305 -2.185797,1.831463 -2.228765,1.831463 -0.04297,0 -0.113271,-0.05703 -0.156229,-0.126721 z"
       id="path15" /><path
       style="fill:#ffffff;stroke-width:0.459574"
       d="m 28.216521,64.221046 c -3.141203,-0.999498 -10.437553,-6.064943 -12.399971,-8.6086 -0.755087,-0.978734 -0.859715,-1.385179 -0.394578,-1.532808 0.641625,-0.203644 2.975369,-0.420716 6.374023,-0.592877 1.951502,-0.09886 4.009233,-0.207808 4.572735,-0.242118 l 1.02455,-0.06238 0.443101,2.470196 c 0.517928,2.887341 1.076425,4.763613 2.036252,6.840793 0.666776,1.442984 0.680531,1.506874 0.372855,1.731853 -0.389118,0.284529 -1.126639,0.283055 -2.028967,-0.0041 z"
       id="path16" /><path
       style="fill:#ffffff;stroke-width:0.459574"
       d="m 13.284525,75.288813 c -0.190469,-0.120647 -0.154998,-0.316191 0.196703,-1.08441 1.121786,-2.450302 5.004215,-8.562976 5.438725,-8.562976 0.121175,0 1.121986,0.451175 2.224025,1.002612 2.881311,1.441748 3.96532,1.715765 7.303451,1.846176 l 2.765326,0.108033 -1.50062,1.43617 c -2.70636,2.590122 -6.284232,4.129036 -11.776798,5.065434 -2.081828,0.35492 -4.249751,0.443002 -4.650812,0.188961 z"
       id="path17" /><path
       style="fill:#ffffff;stroke-width:0.459574"
       d="m 32.234331,87.856987 c -0.20124,-0.140954 -0.756464,-0.902893 -1.23383,-1.693197 -1.057727,-1.75112 -2.495379,-3.705469 -3.724319,-5.062849 -1.742433,-1.92454 -1.721112,-1.622081 -0.177125,-2.512652 1.684548,-0.971646 2.860143,-1.943289 5.816118,-4.807087 2.214129,-2.145085 2.349012,-2.24613 2.643087,-1.979995 0.521724,0.472153 0.708729,1.568602 0.804155,4.714921 0.138379,4.562496 -0.302061,7.007701 -1.763046,9.787964 -0.877928,1.670704 -1.558683,2.117689 -2.36504,1.552895 z"
       id="path18" /><path
       style="fill:#ffffff;stroke-width:0.459574"
       d="m 43.563506,80.732728 c -0.48031,-0.03875 -0.963127,-0.178707 -1.072928,-0.311009 -0.109801,-0.132301 -0.262813,-1.021925 -0.340026,-1.976941 -0.22773,-2.816656 -0.590782,-4.038726 -2.083604,-7.013616 -0.523836,-1.043899 -0.95243,-1.931797 -0.95243,-1.973107 0,-0.193759 3.201887,0.812176 4.234193,1.330254 3.295012,1.653652 9.810993,6.812344 11.050762,8.748872 0.552408,0.862865 0.390958,0.9208 -2.895148,1.0389 -5.46969,0.196575 -7.05769,0.227902 -7.940819,0.156647 z"
       id="path19" /><path
       style="fill:#ffffff;stroke-width:0.459574"
       d="M 50.181477,68.880284 C 49.716834,68.620591 48.894574,68.12228 48.354233,67.772925 46.410976,66.516521 43.670298,65.602239 40.423967,65.127412 39.610842,65.00848 38.945756,64.86639 38.945999,64.811656 c 0.0011,-0.240293 4.460995,-2.776261 5.954057,-3.385546 4.265208,-1.740537 10.650121,-3.261275 11.447006,-2.726412 0.219334,0.147215 0.198504,0.328569 -0.160932,1.40116 -0.790602,2.359234 -4.555677,9.267536 -5.043855,9.254654 -0.06379,-0.0017 -0.496155,-0.215536 -0.960798,-0.475228 z"
       id="path20" /><path
       style="fill:#999999;stroke-width:0.459574"
       d="M 2.112015,68.007292 V 0.56228498 l 1.9580524,0.0567799 C 6.649183,0.6938545 6.7137869,0.75772405 6.9677163,3.4837825 7.1526668,5.4693172 7.4722926,6.6865737 8.0633799,7.6564868 9.0990306,9.3558824 24.372721,15.309031 60.600968,28.133797 l 8.729879,3.09037 0.09331,1.537478 c 0.05132,0.845613 0.172917,17.352247 0.27021,36.681409 0.09729,19.329161 0.211414,35.680736 0.253605,36.336826 l 0.07671,1.1929 -31.295197,10.57077 -31.2951961,10.57077 -0.1981645,2.34459 c -0.2562398,3.03171 -0.4668928,3.97017 -1.0047092,4.47597 -0.3879042,0.36481 -0.6035987,0.40847 -2.273979,0.46023 l -1.8454252,0.0572 z m 31.370352,20.057746 c 0.977135,-0.547917 2.153544,-2.990583 2.784146,-5.780933 0.362922,-1.605887 0.317311,-8.332158 -0.06487,-9.566445 -0.363719,-1.174662 -0.631008,-1.435813 -1.173635,-1.146689 -0.215028,0.114575 -1.455418,1.24221 -2.75642,2.505859 -2.656259,2.579995 -3.900724,3.588138 -5.544749,4.491808 -0.620422,0.341026 -1.159136,0.67036 -1.19714,0.731854 -0.038,0.06149 0.383094,0.605898 0.935773,1.209787 1.515379,1.655788 3.292271,3.970482 4.075721,5.309295 1.118261,1.910962 1.629586,2.45068 2.32176,2.45068 0.139393,0 0.418128,-0.09235 0.619414,-0.205216 z m 18.980086,-7.358226 c 2.275215,-0.112035 2.281101,-0.11339 2.330512,-0.536273 0.15276,-1.307369 -7.076612,-7.425216 -11.269269,-9.536606 -1.072022,-0.539862 -4.521424,-1.557356 -4.694122,-1.384659 -0.04167,0.04166 0.407302,1.0147 0.997702,2.162301 1.482535,2.881708 2.147757,5.096135 2.169119,7.220686 0.0052,0.521655 0.100287,1.214579 0.211201,1.539829 l 0.201666,0.591364 1.43617,0.08448 c 1.565471,0.09209 5.034864,0.03527 8.617021,-0.141122 z M 19.430538,75.029313 c 2.812635,-0.581066 4.389097,-1.117599 6.842929,-2.32892 1.876137,-0.926146 2.277129,-1.205648 3.590425,-2.50262 0.813126,-0.803018 1.478411,-1.54063 1.478411,-1.639136 0,-0.115578 -0.973825,-0.207083 -2.74562,-0.257992 -3.366719,-0.09674 -4.21334,-0.30337 -7.148422,-1.744716 -1.213469,-0.595906 -2.327072,-1.083463 -2.474675,-1.083463 -0.147601,0 -0.490812,0.25335 -0.762689,0.563002 -1.028777,1.17171 -4.690609,7.26684 -5.13965,8.554958 -0.172196,0.493964 -0.156649,0.595087 0.124432,0.809298 0.461629,0.351804 3.65825,0.161895 6.234859,-0.370411 z M 51.65282,69.062891 c 1.326876,-1.413017 4.677927,-8.02309 4.959231,-9.782267 0.108174,-0.676485 0.09443,-0.704325 -0.401305,-0.813207 -1.515635,-0.332889 -7.956397,1.292002 -12.026473,3.034067 -1.265641,0.541716 -5.83684,3.260216 -5.704552,3.392504 0.03516,0.03516 1.123774,0.259589 2.419139,0.498726 3.777396,0.697345 5.205553,1.245553 8.507019,3.265478 0.781495,0.478138 1.508587,0.869342 1.615761,0.869342 0.107174,0 0.391206,-0.209089 0.63118,-0.464643 z M 30.233056,64.46288 c 0.238372,-0.09063 0.433402,-0.291694 0.433402,-0.446813 0,-0.155118 -0.33484,-1.012515 -0.74409,-1.905324 -0.950903,-2.074472 -1.49063,-3.94858 -1.966015,-6.826658 l -0.379494,-2.297524 -1.031858,0.0769 c -0.567524,0.0423 -2.666559,0.157066 -4.664525,0.255044 -3.428444,0.168124 -5.9672,0.397036 -6.631728,0.597963 -0.356833,0.107894 -0.380234,0.595751 -0.05843,1.218059 0.323242,0.62508 2.940035,3.113096 4.511141,4.28914 4.093239,3.063975 7.987785,5.161718 9.644547,5.194902 0.249505,0.005 0.648676,-0.06506 0.887047,-0.155693 z m 6.451302,-3.890289 c 2.987235,-2.507217 5.015512,-4.028328 6.579138,-4.934044 0.6895,-0.399386 1.25452,-0.764173 1.255598,-0.810637 0.0011,-0.04646 -0.920471,-1.224969 -2.04789,-2.618899 -1.127419,-1.39393 -2.585545,-3.294743 -3.240282,-4.22403 -1.971491,-2.798197 -2.082093,-2.865377 -2.998666,-1.821459 -1.559848,1.77657 -2.907528,6.702007 -2.925485,10.691922 -0.0086,1.91904 0.08622,2.683897 0.666814,5.376521 0.04651,0.215691 0.154569,0.367756 0.240136,0.337923 0.08557,-0.02983 1.197352,-0.928618 2.470637,-1.997297 z"
       id="path27" /></g></svg>
