<?xml version="1.0" encoding="UTF-8" standalone="no"?>
<!-- Created with Inkscape (http://www.inkscape.org/) -->

<svg
   version="1.1"
   id="svg1"
   width="73.708458"
   height="143.12672"
   viewBox="0 0 73.708458 143.12672"
   xml:space="preserve"
   xmlns="http://www.w3.org/2000/svg"
><defs
     id="defs1" /><g
     id="layer4"
     transform="translate(-1.0162703,4.1267171)"><path
       id="rect27"
       style="fill:#ffd42a;stroke-width:2.90551"
       d="M 7.2214531,3.3003744 74.724735,27.494243 V 106.32302 L 7.2214531,130.51689 Z" /><path
       style="fill:#000000"
       d="M 1.0162703,67.436642 V -4.126717 l 3.25,0.3133585 c 2.3500487,0.226587 3.2269243,0.7979477 3.1666666,2.0633585 -0.045833,0.9625 -0.1583333,33.025 -0.25,71.25 L 7.0162703,139 h -3 -3 z M 40.597642,88.008726 C 40.277888,86.353927 39.755515,83.65 39.436815,82 c -0.3187,-1.65 -0.812148,-3 -1.09655,-3 -0.284402,0 -2.562003,1.8 -5.061335,4 -2.499332,2.2 -4.911886,4 -5.361232,4 -0.449346,0 0.47812,-3.035889 2.061035,-6.746421 1.582916,-3.710531 2.771408,-6.853041 2.641094,-6.983355 -0.130314,-0.130315 -3.244425,0.125132 -6.920246,0.567659 -3.675821,0.442527 -6.683311,0.473635 -6.683311,0.06913 0,-0.404505 2.336362,-2.173042 5.191915,-3.930081 L 29.4001,66.782314 25.458185,64.440351 C 18.9023,60.54538 18.497501,60.251968 19.01627,59.771027 c 0.275,-0.254947 3.3125,-0.178652 6.75,0.169544 3.4375,0.348196 6.25,0.269131 6.25,-0.175701 0,-0.444831 -1.321778,-3.723904 -2.937285,-7.286827 C 25.634052,44.880405 26.739158,44.0837 32.51627,50 c 2.148243,2.2 4.469178,4 5.157635,4 0.688457,0 1.526732,-1.6875 1.862833,-3.75 0.336102,-2.0625 0.9839,-4.65 1.439552,-5.75 0.94779,-2.288083 1.117348,-1.979426 3.229023,5.878003 l 1.310957,4.878002 5.25,-4.720672 c 5.84383,-5.254629 6.41024,-4.569628 2.740231,3.313964 -1.369627,2.942113 -2.490231,5.575284 -2.490231,5.851491 0,0.276207 3.15,0.185853 7,-0.200788 3.85,-0.386641 7,-0.428152 7,-0.09225 0,0.335904 -2.25,1.995174 -5,3.687266 -2.75,1.692092 -5,3.433338 -5,3.869436 0,0.436098 1.2375,1.313066 2.75,1.948817 1.5125,0.635752 3.875,2.075985 5.25,3.200519 l 2.5,2.044606 -7.363724,-0.596749 c -5.730559,-0.4644 -7.24805,-0.315626 -6.842166,0.670802 0.286857,0.697153 1.682358,3.855051 3.101114,7.017551 1.418756,3.1625 2.296247,5.75 1.94998,5.75 -0.346267,0 -2.98461,-2.011967 -5.862983,-4.471039 l -5.233406,-4.471038 -1.168478,5.939258 c -1.34387,6.830763 -2.662163,8.342179 -3.498965,4.011545 z m 2.660459,-13.469421 c 0.958524,0.36782 1.688777,-0.165947 2.034207,-1.486874 0.362244,-1.385222 1.060893,-1.860369 2.131422,-1.449569 1.133403,0.434928 1.59254,0.02769 1.59254,-1.41254 0,-1.11301 0.459292,-2.176753 1.020648,-2.363871 1.53097,-0.510324 -1.180191,-5.63491 -3.270314,-6.181489 -0.962684,-0.251748 -1.750334,-1.14707 -1.750334,-1.989606 0,-2.1682 -5.292164,-1.662078 -6.217776,0.594644 -0.394776,0.9625 -1.407276,1.75 -2.25,1.75 -0.842723,0 -1.532224,0.652639 -1.532224,1.45031 0,0.79767 -0.729834,1.858746 -1.621855,2.357945 -1.432247,0.801526 -1.361119,1.090262 0.608409,2.469773 1.226645,0.859176 1.929922,2.0481 1.562838,2.642055 C 35.198578,71.514037 35.569469,72 36.389866,72 c 0.820396,0 1.784797,0.923692 2.143115,2.05265 0.488863,1.540273 0.97328,1.785583 1.940639,0.982747 0.709035,-0.588447 1.962051,-0.811688 2.784481,-0.496092 z"
       id="path27" /></g></svg>
