<?xml version="1.0" encoding="UTF-8" standalone="no"?>
<!-- Created with Inkscape (http://www.inkscape.org/) -->

<svg
   version="1.1"
   id="svg1"
   width="68.830597"
   height="135"
   viewBox="0 0 68.830597 135"
   xmlns="http://www.w3.org/2000/svg"
>
  <defs
     id="defs1" />
  <g
     id="layer1">
    <path
       style="fill:#ffffff;stroke-width:0.459574"
       d="m 47.612013,71.642729 c -1.357757,-0.586914 -4.442426,-3.057726 -4.442426,-3.558371 0,-0.537804 2.540656,-2.292664 6.534238,-4.513271 4.704983,-2.616177 7.963364,-3.625073 11.122208,-3.443782 1.686562,0.0968 2.956821,0.348976 2.956821,0.58701 0,0.685339 -9.448854,7.715225 -13.9393,10.370748 -1.30845,0.773781 -1.576576,0.840786 -2.231541,0.557666 z"
       id="path6" />
    <path
       style="fill:#ffffff;stroke-width:0.459574"
       d="m 34.887241,62.377382 c -2.104949,-0.866061 -3.837446,-2.082861 -4.334684,-3.044412 -0.797431,-1.542062 0.423626,-4.321728 1.68739,-3.841246 0.535552,0.203617 0.829145,0.641939 1.309537,1.955085 0.735457,2.010359 1.280929,2.025489 1.218223,0.03379 -0.03949,-1.254413 -0.278492,-2.741828 -0.887766,-5.52503 -0.518996,-2.370809 -0.492298,-4.842199 0.07559,-6.997391 0.487052,-1.848405 1.312404,-3.956766 1.77031,-4.522256 0.294719,-0.363964 0.297035,-0.362169 0.739537,0.573202 0.767728,1.622845 1.924467,4.891082 3.92936,11.101975 l 1.940546,6.011554 -0.723337,0.654777 c -2.894819,2.620433 -4.791678,3.984818 -5.538732,3.983935 -0.139393,-1.64e-4 -0.673083,-0.172957 -1.185976,-0.383983 z"
       id="path7" />
    <path
       style="fill:#ffffff;stroke-width:0.459574"
       d="m 22.755,71.709357 c -0.698441,-0.211952 -1.965447,-1.455115 -2.123065,-2.083113 -0.256079,-1.020301 0.366814,-1.260607 3.977697,-1.534561 1.5475,-0.117407 2.897078,-0.265037 2.999061,-0.328066 C 28.296578,67.338481 26.986892,66.542056 24.536785,65.89558 23.679851,65.669472 21.68617,65.247505 20.106383,64.957875 14.00578,63.839421 10.512987,62.678924 9.2141701,61.338884 8.7874951,60.898667 8.6843415,60.691128 8.8231987,60.552271 9.454152,59.921317 25.430606,59.936163 27.784086,60.569889 c 1.017074,0.27387 1.451477,0.723924 1.75997,1.823382 0.605957,2.159617 0.236927,4.088402 -1.179801,6.166403 -1.699408,2.492623 -3.830739,3.689398 -5.609255,3.149683 z"
       id="path8" />
    <path
       style="fill:#ffffff;stroke-width:0.459574"
       d="m 19.333378,92.482566 c -0.24039,-0.449173 -0.113207,-1.482337 0.448702,-3.645005 0.470959,-1.812625 4.768265,-14.927257 4.958295,-15.131857 0.06658,-0.07169 1.446197,-0.237495 3.065811,-0.36846 3.486681,-0.28194 3.812312,-0.213152 3.753395,0.792885 -0.152117,2.597504 -6.052182,13.991199 -8.605691,16.618567 -0.836174,0.860359 -2.675877,2.095484 -3.121199,2.095484 -0.168181,0 -0.392872,-0.162726 -0.499313,-0.361614 z"
       id="path9" />
    <path
       style="fill:#ffffff;stroke-width:0.459574"
       d="m 31.250796,84.036059 c -0.247148,-0.778694 -0.103019,-3.739156 0.248169,-5.097467 0.32865,-1.27114 1.440662,-3.666377 1.702152,-3.666377 0.250134,0 0.488675,0.446354 0.904459,1.692409 0.561172,1.681765 0.838991,3.730848 0.617407,4.553748 -0.349059,1.296306 -1.634475,2.579394 -2.814547,2.809449 -0.454844,0.08867 -0.550342,0.0463 -0.65764,-0.291762 z"
       id="path10" />
    <path
       style="fill:#ffffff;stroke-width:0.459574"
       d="m 53.072728,93.298887 c -1.566334,-0.988203 -7.287488,-4.797658 -8.8588,-5.898669 -4.905148,-3.437012 -6.273294,-4.652406 -6.649099,-5.906731 -0.360859,-1.204441 0.534155,-5.360094 1.388279,-6.445937 0.512937,-0.652094 1.667526,-1.119599 3.646365,-1.476449 2.588347,-0.466765 3.619837,-0.439689 4.275766,0.112239 1.129515,0.950424 2.336366,4.461847 1.627054,4.734035 -0.531038,0.203779 -1.593922,-0.273464 -3.631745,-1.630682 -2.97594,-1.982016 -3.090206,-1.836943 -0.790493,1.003614 2.242831,2.770298 4.627317,5.522489 6.039119,6.970396 1.367975,1.402958 1.970416,2.478352 2.600925,4.642814 0.411206,1.411622 0.925082,3.610589 0.925082,3.958594 0,0.205505 -0.177598,0.185892 -0.572453,-0.06322 z"
       id="path11" />
    <path
       style="fill:#ffffff;stroke-width:0.459574"
       d="m 47.612013,71.642729 c -1.357757,-0.586914 -4.442426,-3.057726 -4.442426,-3.558371 0,-0.537804 2.540656,-2.292664 6.534238,-4.513271 4.704983,-2.616177 7.963364,-3.625073 11.122208,-3.443782 1.686562,0.0968 2.956821,0.348976 2.956821,0.58701 0,0.685339 -9.448854,7.715225 -13.9393,10.370748 -1.30845,0.773781 -1.576576,0.840786 -2.231541,0.557666 z"
       id="path12" />
    <path
       style="fill:#ffffff;stroke-width:0.459574"
       d="m 42.268461,65.697747 c -0.202222,-0.202221 -0.118502,-1.499827 0.146131,-2.264958 0.801778,-2.318166 2.953016,-3.783121 4.705884,-3.204622 0.49223,0.162451 0.611063,0.286494 0.611063,0.637856 0,0.575956 -1.055061,1.952951 -2.391935,3.121793 -1.800188,1.573921 -2.703958,2.077117 -3.071143,1.709931 z"
       id="path13" />
  </g>
  <g
     id="g1">
    <path
       style="fill:#000000"
       d="M 0,67.5 V 0 H 3.5 7 v 4.7641 c 0,4.603988 0.1346626,4.8224401 4.00686,6.5 2.203773,0.954745 4.721842,1.7359 5.595708,1.7359 0.873866,0 2.783279,0.638534 4.24314,1.418966 C 22.305569,15.199397 33.625,19.151038 46,23.200392 l 22.5,7.36246 0.262025,37.718574 C 68.906139,89.026642 68.815595,106 68.560815,106 66.86896,106 56.007432,109.4628 48,112.55507 c -5.225,2.01776 -13.325,4.93503 -18,6.48283 -4.675,1.54779 -10.525,3.516 -13,4.37378 -2.475,0.85778 -5.7375,1.79964 -7.25,2.09301 C 7.2384994,125.99184 7,126.42672 7,130.51905 7,134.97347 6.9792769,135 3.5,135 H 0 Z m 52.935868,22.229904 c -0.555457,-2.011701 -1.402502,-3.900266 -1.882322,-4.196811 -0.479819,-0.296544 -2.825657,-2.888428 -5.212972,-5.759741 -4.198856,-5.05012 -4.232583,-5.144408 -1.032999,-2.887869 3.854019,2.718085 5.005914,2.195346 3.319317,-1.506331 -1.062011,-2.33086 -1.609802,-2.562471 -4.826134,-2.040532 -4.458119,0.723453 -4.993591,1.252628 -5.728752,5.66138 -0.573883,3.441567 -0.446545,3.595357 7.627209,9.211641 4.51596,3.141403 8.331378,5.5911 8.478706,5.443771 0.147328,-0.147328 -0.186595,-1.913807 -0.742053,-3.925508 z m -30.284277,1.49786 c 2.063827,-1.657288 7.304815,-11.205457 8.806213,-16.043388 0.673235,-2.169355 0.481468,-2.295688 -3.035902,-2 L 24.667372,73.5 21.40466,83.25 c -3.329826,9.950556 -3.093409,11.463131 1.246931,7.977764 z M 34.929715,80.714816 C 34.891058,79.496667 34.511727,77.610037 34.086758,76.522304 33.331599,74.589435 33.28786,74.593611 32.157043,76.706563 31.520669,77.895638 31,80.263933 31,81.969442 31,84.76049 31.199861,84.963405 33,84 c 1.12318,-0.601108 1.969186,-2.041365 1.929715,-3.285184 z M 27.92742,69.365141 c 2.116322,-2.690467 2.545429,-4.96934 1.465591,-7.783354 -0.502051,-1.308325 -2.446972,-1.576035 -11.25,-1.548518 -10.4208388,0.03258 -10.5975713,0.07121 -8.4662512,1.850987 1.2302292,1.02731 5.4630602,2.347854 9.7343412,3.036885 C 27.374236,66.205733 30.471416,68 24.725684,68 c -4.01544,0 -5.12164,0.817976 -3.594563,2.657991 1.750547,2.109281 4.537153,1.579189 6.796299,-1.29285 z M 56.533798,66.75 c 4.050543,-2.8875 7.387479,-5.5875 7.415413,-6 0.02793,-0.4125 -1.788593,-0.75 -4.036726,-0.75 -2.831354,0 -6.058179,1.102058 -10.5,3.586066 C 45.885618,65.558402 43,67.528515 43,67.964094 c 0,0.886039 4.03897,3.902027 5.334587,3.983454 C 48.79361,71.976397 52.483254,69.6375 56.533798,66.75 Z M 45.685549,63.825686 C 48.516878,61.165791 48.623421,60 46.035184,60 44.165304,60 42,62.647753 42,64.934259 c 0,1.627008 1.138022,1.284704 3.685549,-1.108573 z m -6.018153,-3.216015 2.778924,-2.39033 -2.911271,-9.10967 C 37.933849,44.099352 36.329657,40 35.970176,40 c -0.35948,0 -1.207788,1.849712 -1.885128,4.110471 -0.960556,3.206051 -0.970589,5.19818 -0.0456,9.053977 1.178186,4.911227 0.760647,7.931796 -0.533003,3.855865 -0.826457,-2.603935 -2.891719,-2.140766 -3.317613,0.74403 -0.21612,1.463888 0.547512,2.57318 2.5,3.631634 3.69038,2.000574 3.745892,1.99432 6.978562,-0.786306 z"
       id="path1" />
  </g>
</svg>
