<?xml version="1.0" encoding="UTF-8" standalone="no"?>
<!-- Created with Inkscape (http://www.inkscape.org/) -->

<svg
   version="1.1"
   id="svg1"
   width="71.5"
   height="135"
   viewBox="0 0 71.5 135"
   xml:space="preserve"
   xmlns="http://www.w3.org/2000/svg"
><defs
     id="defs1" /><g
     id="layer2"
     transform="translate(-1.5162703,-1.5)"><path
       style="fill:#000000"
       d="M 1.5162703,69 V 1.5 h 3 c 2.6406547,0 3,0.3458509 3,2.8873415 0,3.2253709 -5.3144723,1.0349263 45.9999997,18.9596345 l 19.5,6.811563 V 67.995936 105.83333 L 40.26627,116.75 7.5162703,127.66667 v 4.41666 c 0,4.24074 -0.1194968,4.41667 -3,4.41667 h -3 z M 24.01627,113.79333 c 6.05,-1.94813 17.975,-5.84859 26.5,-8.66769 L 66.01627,100 66.280145,68.377067 66.544019,36.754135 63.780145,35.67285 C 52.687228,31.33307 8.9929455,16.705399 8.3357624,17.11156 7.8850418,17.390121 7.5162703,40.053976 7.5162703,67.475684 c 0,51.771526 -0.0052,51.706076 3.9999997,50.362776 0.825,-0.2767 6.45,-2.09701 12.5,-4.04513 z m 7.964915,-25.403875 c -0.368424,-1.160799 -2.251111,-3.860799 -4.18375,-6 C 24.77301,79.041778 24.558002,78.5 26.253885,78.5 c 2.143672,0 5.80781,-3.052416 8.405199,-7.001964 L 36.301897,69 l 0.732711,3.825872 c 0.842662,4.399983 0.09734,11.228752 -1.642267,15.046778 -1.447384,3.176663 -2.515585,3.3385 -3.411156,0.516805 z M 43.51627,77.86813 c 0,-2.26355 -0.973819,-4.407656 -3.103592,-6.833334 C 38.705702,69.090658 37.833569,67.5 38.474604,67.5 c 2.8825,0 11.929954,5.306814 15.836303,9.288835 l 4.294637,4.377832 H 51.060907 43.51627 Z m -33,-2.193754 c 0,-0.528219 0.640993,-1.20637 1.424429,-1.507003 1.296055,-0.497343 3.439172,-4.372845 4.950498,-8.952227 0.554563,-1.680346 0.738305,-1.68706 3.1381,-0.114654 1.401975,0.91861 5.12258,1.960234 8.26801,2.314721 l 5.718963,0.644521 -5.49536,3.195654 c -3.022448,1.75761 -7.522448,3.469496 -10,3.804192 -2.477552,0.334696 -5.29214,0.826036 -6.25464,1.091867 -0.9625,0.26583 -1.75,0.05115 -1.75,-0.477071 z m 41.13432,-7.51253 c -1.593632,-1.92021 -8.240775,-3.708274 -11.052306,-2.973042 -3.472828,0.908165 -1.873218,-1.141012 3.21967,-4.12455 3.63073,-2.126971 15.514466,-5.007444 16.562321,-4.014506 0.200202,0.18971 -0.561679,1.521743 -1.693069,2.960072 -1.131391,1.43833 -2.567591,4.162028 -3.191557,6.052663 -1.224367,3.709868 -2.108039,4.192344 -3.845059,2.099363 z M 27.51627,63.426059 c -3.88963,-1.754671 -14,-10.340156 -14,-11.888467 0,-0.295676 3.375,-0.537592 7.5,-0.537592 h 7.5 v 4.173275 c 0,3.03075 0.708766,5.015595 2.588894,7.25 3.028436,3.599091 2.496124,3.747826 -3.588894,1.002784 z m 6.518694,-4.790138 c -0.683212,-4.96755 0.406576,-10.639495 2.900733,-15.097247 l 1.377138,-2.461327 1.551004,3.712076 c 0.853052,2.041641 2.715797,4.791569 4.139433,6.11095 l 2.588428,2.398875 -3.787715,1.850376 c -2.281,1.114315 -4.384399,3.134584 -5.287715,5.078734 -0.825,1.775596 -1.795273,3.238096 -2.156162,3.25 -0.360889,0.0119 -0.957204,-2.167193 -1.325144,-4.842437 z"
       id="path13" /><path
       style="fill:#ffffff;stroke-width:0.459574"
       d="M 9.3254969,117.71753 C 8.0636529,116.32321 7.844125,112.99837 7.6999285,93.097622 7.4572137,59.600219 7.8456743,17.780108 8.4047344,17.221048 8.7420561,16.883726 38.566712,26.716263 55.503755,32.748565 c 4.081604,1.453705 10.787078,3.950259 10.933783,4.070821 0.01968,0.01617 -0.07386,12.267216 -0.207876,27.224536 -0.134015,14.957319 -0.245161,29.148072 -0.246989,31.535002 l -0.0033,4.339876 -12.291927,4.05176 c -29.467065,9.71316 -42.911066,14.04884 -43.562429,14.04884 -0.2907767,0 -0.6485668,-0.13509 -0.7994961,-0.30187 z M 34.109164,90.127132 c 0.574598,-0.45198 1.661446,-2.709159 2.19003,-4.548283 0.8175,-2.844363 1.029033,-4.556957 1.033037,-8.36358 0.0034,-3.236509 -0.03874,-3.760796 -0.479769,-5.968586 -0.265924,-1.331222 -0.538961,-2.357661 -0.60675,-2.280977 -0.06779,0.07668 -0.739125,1.055944 -1.491861,2.176134 -2.890021,4.300803 -5.993147,6.913771 -8.66783,7.298695 -0.654907,0.09425 -0.92242,0.210781 -0.962578,0.419306 -0.07472,0.387965 0.627983,1.367107 2.578738,3.593225 2.031268,2.317998 3.546075,4.509639 4.193536,6.067262 0.798123,1.920082 1.32705,2.304044 2.213447,1.606804 z M 55.924294,78.3004 c -3.97541,-3.996157 -7.451351,-6.564707 -12.078862,-8.925683 -2.985627,-1.523281 -5.326423,-2.24582 -5.638715,-1.740518 -0.179544,0.290507 0.592192,1.5597 2.075881,3.413986 2.585807,3.231694 3.213701,4.902948 3.221564,8.574781 l 0.0033,1.562891 h 7.643631 7.643631 z M 14.177215,75.87343 c 1.216612,-0.226905 3.010363,-0.538187 3.986114,-0.691741 3.564784,-0.560985 7.177068,-1.997626 12.029664,-4.784315 1.807096,-1.037758 3.431266,-1.993323 3.609265,-2.123481 0.303595,-0.221993 0.287145,-0.242552 -0.265593,-0.331968 -0.324077,-0.05243 -1.957816,-0.254542 -3.630532,-0.449148 -5.036604,-0.585968 -7.971283,-1.370179 -10.174956,-2.718976 -1.431936,-0.876442 -1.850585,-1.032372 -2.228606,-0.830061 -0.177997,0.09526 -0.628845,1.043319 -1.104815,2.32324 -0.810461,2.179397 -2.153039,5.042837 -2.824642,6.024373 -0.619677,0.905647 -1.380758,1.644793 -2.047288,1.988281 -0.786737,0.405436 -1.307953,1.340579 -0.972486,1.744791 0.299435,0.360797 1.046694,0.329662 3.623875,-0.150995 z m 39.770556,-6.610502 c 0.449389,-0.314765 0.88823,-1.139639 1.54772,-2.909184 1.004819,-2.696141 1.88391,-4.345171 3.581815,-6.718891 1.12052,-1.566521 1.588962,-2.532609 1.311249,-2.704245 -0.59127,-0.365424 -3.908248,0.04672 -7.58818,0.942855 -5.027389,1.224265 -7.954649,2.357417 -10.657976,4.125735 -2.003854,1.310774 -2.809547,1.966995 -3.252324,2.64896 -0.47019,0.724183 -0.243601,0.892943 0.965869,0.719361 0.567966,-0.08151 1.869025,-0.138369 2.89124,-0.126344 3.355335,0.03947 7.086653,1.347597 8.999254,3.15496 1.269152,1.199318 1.561972,1.314619 2.201333,0.866793 z M 32.838794,65.322011 c 0.36501,-0.231281 0.109603,-0.719162 -1.354425,-2.587242 -2.454432,-3.131821 -2.694281,-3.848904 -2.800091,-8.371502 l -0.08005,-3.421465 -5.516132,0.0027 c -5.651627,0.0028 -9.238637,0.188468 -9.544138,0.493968 -0.263961,0.26396 0.15756,0.919114 1.533916,2.384109 2.249454,2.39432 6.589198,6.002701 9.851222,8.191024 1.635193,1.096967 4.120389,2.294689 6.308058,3.040124 1.384162,0.471644 1.302263,0.457927 1.601639,0.268235 z m 3.240193,-2.418741 c 0.283124,-0.390842 0.872853,-1.395391 1.310508,-2.232329 1.456201,-2.78473 3.393363,-4.466533 7.31207,-6.348191 1.06245,-0.510158 1.956937,-0.940876 1.987751,-0.95715 0.03081,-0.01627 -0.817198,-0.875513 -1.88447,-1.909422 -2.721264,-2.636197 -3.899125,-4.412226 -5.531457,-8.340572 -1.062746,-2.557585 -0.866639,-2.61305 -2.580453,0.729826 -1.735609,3.385386 -2.623518,6.607103 -2.911834,10.56536 -0.230883,3.169798 0.830849,9.2031 1.619549,9.2031 0.08996,0 0.395211,-0.319781 0.678336,-0.710622 z"
       id="path14" /></g></svg>
