<?xml version="1.0" encoding="UTF-8" standalone="no"?>
<!-- Created with Inkscape (http://www.inkscape.org/) -->

<svg
   width="240"
   height="240"
   viewBox="0 0 63.499984 63.499984"
   version="1.1"
   id="svg1"
   xml:space="preserve"
   xmlns="http://www.w3.org/2000/svg"><defs
     id="defs1" /><path
     style="fill:#000000;stroke-width:0.719666"
     id="path1"
     d="m 30.785149,39.605613 -5.495802,-1.137647 -1.998409,5.244468 -4.775266,-2.948713 -3.671604,4.244691 -3.478763,-4.404121 -4.9019493,2.732943 -1.7626698,-5.328328 -5.54104686,0.891561 0.16602742,-5.609858 L -6.186146,32.233252 -4.1114467,27.018494 -8.9292189,24.139753 -5.1960872,19.949072 -8.7387246,15.596165 -3.7974312,12.93502 -5.6376395,7.6329722 -0.08417727,6.8223356 -2.8312224e-7,1.2106519 5.4958013,2.3482986 l 1.9984093,-5.2444675 4.7752664,2.94871306 3.671604,-4.24469126 3.478763,4.40412116 4.901949,-2.73294246 1.76267,5.3283271 5.541047,-0.8915605 -0.166028,5.6098583 5.511813,1.0573568 -2.0747,5.2147577 4.817773,2.878741 -3.733132,4.190681 3.542637,4.352907 -4.941293,2.661145 1.840208,5.302048 -5.553462,0.810636 z"
     transform="matrix(1.3054133,0,0,1.2906354,11.656321,5.4105339)" /><path
     id="rect1"
     style="fill:#ff7f2a;fill-opacity:1;stroke-width:0.204053"
     d="M 26.636151,8.5527229 50.047917,3.5874339 36.876745,25.848548 52.506108,32.42114 20.565577,58.380173 34.777748,35.795024 18.763572,31.699077 Z" /><path
     style="fill:#000000;stroke-width:0.719666"
     id="path2"
     d="m 63.126849,28.017946 0.182415,-0.15081 -0.119834,-0.204105 0.222994,-0.07933 -0.0428,-0.232781 0.236677,0.0017 0.0394,-0.233381 0.221813,0.08257 0.116843,-0.205831 0.180195,0.153455 0.180195,-0.153455 0.116843,0.205831 0.221813,-0.08257 0.0394,0.233381 0.236676,-0.0017 -0.0428,0.232781 0.222993,0.07933 -0.119833,0.204105 0.182414,0.15081 -0.182414,0.15081 0.119833,0.204105 -0.222993,0.07933 0.0428,0.232781 -0.236676,-0.0017 -0.0394,0.23338 -0.221813,-0.08257 -0.116843,0.205831 -0.180195,-0.153455 -0.180195,0.153455 -0.116843,-0.205831 -0.221813,0.08257 -0.0394,-0.23338 -0.236677,0.0017 0.0428,-0.232781 -0.222994,-0.07933 0.119834,-0.204105 z"
     transform="translate(-7.6947551,-8.0406551)" /></svg>
