<?xml version="1.0" standalone="no"?>
<!DOCTYPE svg PUBLIC "-//W3C//DTD SVG 20010904//EN"
 "http://www.w3.org/TR/2001/REC-SVG-20010904/DTD/svg10.dtd">
<svg version="1.0" xmlns="http://www.w3.org/2000/svg"
 width="1405.000000pt" height="1918.000000pt" viewBox="0 0 1405.000000 1918.000000"
 preserveAspectRatio="xMidYMid meet">

<g transform="translate(0.000000,1918.000000) scale(0.100000,-0.100000)"
fill="#000000" stroke="none">
<path d="M625 19157 c-113 -8 -232 -41 -278 -77 -12 -10 -31 -20 -42 -24 -23
-7 -47 -28 -128 -117 -62 -67 -114 -159 -141 -248 -15 -50 -16 -755 -16 -8433
l0 -8378 258 0 c141 0 1150 -3 2242 -6 1712 -5 1993 -8 2044 -21 116 -29 176
-73 222 -165 14 -29 34 -64 44 -78 9 -14 57 -101 105 -195 48 -93 98 -188 110
-210 12 -22 58 -107 100 -190 43 -82 91 -169 107 -192 l29 -43 499 0 499 0 36
-61 c21 -33 35 -62 32 -65 -3 -3 -268 -2 -589 2 l-584 7 -46 86 c-114 217
-173 330 -201 381 -16 30 -69 130 -117 221 -171 325 -193 352 -296 369 -36 6
-918 10 -2276 10 l-2218 0 -2 -567 c-3 -622 -1 -647 53 -755 37 -75 125 -188
145 -188 8 0 14 -6 14 -14 0 -12 67 -66 83 -66 4 0 16 -8 26 -17 29 -24 135
-60 216 -74 50 -8 679 -12 2220 -15 1183 -2 2697 -7 3365 -11 668 -4 1692 -8
2275 -8 963 1 1458 1 3779 5 402 1 733 3 736 5 4 2 98 5 211 6 293 3 381 12
476 50 43 17 85 37 94 45 8 8 21 14 27 14 18 0 151 140 189 198 41 63 78 159
88 225 l7 47 -188 1 c-104 0 -382 2 -619 4 -236 2 -1033 7 -1770 10 -2747 11
-3730 18 -3739 25 -4 5 1 21 12 37 10 15 26 39 34 52 l14 24 1119 -2 c616 -1
1379 -3 1695 -6 316 -3 1222 -7 2012 -11 l1437 -6 1 118 c0 66 3 153 5 194 2
41 4 206 3 365 0 160 0 304 2 320 1 17 4 3854 6 8528 l5 8498 -33 60 c-33 63
-187 229 -212 229 -7 0 -19 6 -25 14 -6 7 -33 21 -59 31 -26 9 -61 23 -77 30
-17 8 -80 19 -140 25 -130 13 -12700 20 -12880 7z m937 -422 c88 -18 238 -78
308 -123 83 -53 200 -176 253 -267 72 -125 108 -246 114 -385 4 -83 1 -136
-11 -189 -20 -94 -72 -221 -108 -263 -15 -18 -28 -36 -28 -40 0 -3 -13 -20
-30 -36 -16 -16 -26 -32 -23 -36 4 -3 -5 -6 -18 -7 -22 0 -23 -1 -4 -9 19 -8
19 -9 -3 -9 -13 -1 -20 -5 -17 -11 3 -5 -3 -10 -14 -10 -12 0 -21 -5 -21 -11
0 -14 -26 -39 -40 -39 -6 0 -8 -4 -5 -10 4 -6 -7 -10 -27 -10 -25 0 -29 -3
-18 -10 12 -8 10 -10 -8 -10 -13 0 -20 -4 -17 -10 4 -6 -7 -10 -24 -10 -22 0
-31 -5 -31 -16 0 -12 -7 -14 -32 -9 -25 5 -29 4 -18 -4 13 -10 13 -11 0 -12
-8 -1 -21 -1 -28 0 -7 1 -11 -4 -10 -11 2 -9 -8 -13 -29 -12 -18 1 -30 -2 -27
-7 3 -5 -15 -9 -40 -9 -26 0 -46 -5 -46 -11 0 -7 -18 -8 -55 -4 -38 5 -55 4
-55 -4 0 -6 -5 -11 -11 -11 -5 0 -7 5 -4 10 4 7 -2 9 -19 4 -24 -6 -271 22
-290 33 -4 3 -3 9 4 13 7 4 -9 11 -36 15 -58 8 -71 15 -53 26 10 6 6 9 -12 9
-14 0 -34 9 -44 20 -10 11 -23 20 -28 20 -8 0 -49 31 -119 89 -9 8 -15 18 -12
22 3 5 -7 11 -21 15 -13 3 -23 9 -20 14 2 4 -6 18 -18 31 -12 13 -22 27 -22
32 0 4 -11 19 -24 33 -15 16 -18 24 -10 25 8 0 5 4 -6 8 -11 5 -20 12 -20 17
-1 5 -6 19 -13 32 -7 12 -10 26 -7 31 3 5 0 11 -5 13 -6 2 -12 13 -13 26 0 12
-5 22 -9 22 -4 0 -8 9 -8 19 0 11 -5 23 -10 26 -8 5 -8 11 0 20 6 8 7 16 2 19
-5 3 -7 16 -5 28 3 15 -4 32 -19 47 -14 15 -16 23 -7 19 13 -5 15 6 13 78 -1
46 1 84 5 84 4 0 6 18 5 40 -1 22 2 40 7 40 4 0 6 9 4 20 -2 11 1 22 7 26 6 4
5 10 -3 15 -11 7 -10 9 5 9 15 0 16 3 6 15 -9 11 -9 15 -1 15 7 0 10 4 7 9 -4
5 -1 11 4 13 6 2 12 13 13 26 0 12 5 22 9 22 4 0 4 7 1 17 -5 12 -3 14 7 8 10
-6 12 -4 7 8 -4 11 -1 17 7 17 8 0 12 9 11 25 -3 21 1 25 22 25 21 0 24 2 13
15 -10 12 -9 15 6 15 16 0 17 2 4 10 -13 9 -13 10 0 10 8 0 24 11 34 25 10 14
26 25 35 25 14 0 14 2 1 10 -13 9 -13 10 0 10 21 0 44 37 27 43 -7 3 1 6 16 6
16 1 26 5 23 9 -3 5 6 15 19 22 14 7 25 17 25 21 0 4 12 14 28 22 15 7 43 23
63 34 139 80 374 114 541 78z m5403 -199 c39 -2 549 -7 1135 -10 1948 -11
4138 -25 4670 -31 289 -2 560 -5 604 -5 l78 0 -6 -1037 c-3 -571 -8 -1337 -11
-1703 -18 -2445 -24 -3382 -30 -4550 -3 -542 -7 -1320 -10 -1730 -3 -410 -7
-1085 -10 -1500 -3 -415 -7 -1063 -10 -1440 -5 -714 -11 -1862 -20 -3815 -6
-1278 -13 -1864 -22 -1878 -4 -6 -272 -7 -727 -3 -396 3 -1306 8 -2021 11
-715 3 -1444 8 -1620 10 -176 2 -508 4 -738 5 l-417 0 6 108 c12 195 -36 365
-150 532 -85 126 -269 250 -436 296 -93 25 -300 25 -400 0 -185 -47 -362 -167
-458 -310 -99 -148 -147 -324 -139 -503 l5 -113 -446 6 c-246 3 -452 7 -458 9
-6 2 -29 38 -51 82 -60 116 -104 197 -114 209 -5 6 -50 91 -100 190 -51 98
-109 208 -129 244 -21 36 -54 97 -73 136 -47 94 -75 125 -144 161 -123 65 -22
62 -2027 63 -1000 0 -1850 3 -1888 7 l-70 6 6 586 c3 322 8 971 11 1441 3 470
7 1177 10 1570 15 2140 24 3741 30 5440 3 833 8 1803 10 2155 2 352 7 1041 10
1530 9 1506 17 2480 20 2484 2 1 19 -8 37 -22 103 -76 290 -135 455 -144 175
-10 335 21 493 94 115 53 140 67 140 78 0 6 24 32 54 58 65 56 165 187 208
270 57 113 98 293 98 428 0 79 -36 233 -76 321 -38 86 -111 203 -145 234 -10
9 -19 24 -19 32 0 13 281 14 2408 8 1324 -3 2439 -8 2477 -10z m240 -16810
c72 -20 192 -78 250 -120 65 -47 164 -161 204 -235 73 -138 98 -331 61 -477
-49 -191 -195 -372 -360 -446 -41 -18 -144 -51 -213 -67 -122 -28 -312 3 -461
75 -59 29 -100 59 -158 115 -43 42 -78 82 -78 88 0 6 -4 11 -10 11 -5 0 -10 5
-10 11 0 6 -9 24 -21 40 -27 38 -67 141 -80 204 -10 52 -12 183 -4 248 7 49
49 159 87 227 84 149 268 282 456 330 89 23 250 21 337 -4z"/>
<path d="M9940 13355 c0 -8 7 -15 15 -15 8 0 15 7 15 15 0 8 -7 15 -15 15 -8
0 -15 -7 -15 -15z"/>
</g>
</svg>
